<svg xmlns="http://www.w3.org/2000/svg" width="21.473" height="25.5" viewBox="0 0 21.473 25.5"><defs><style>.a{fill:#355834;}</style></defs><g transform="translate(-32)"><g transform="translate(32)"><path class="a" d="M42.737,0C36.8,0,32,.671,32,5.368V18.789a4,4,0,0,0,1.342,2.979v2.389A1.346,1.346,0,0,0,34.684,25.5h1.342a1.342,1.342,0,0,0,1.342-1.342V22.816H48.105v1.342A1.342,1.342,0,0,0,49.447,25.5h1.342a1.346,1.346,0,0,0,1.342-1.342V21.769a4,4,0,0,0,1.342-2.979V5.368C53.474.671,48.669,0,42.737,0ZM36.7,20.131a2.013,2.013,0,1,1,2.013-2.013A2.01,2.01,0,0,1,36.7,20.131Zm12.079,0a2.013,2.013,0,1,1,2.013-2.013A2.01,2.01,0,0,1,48.776,20.131Zm2.013-8.053H34.684V5.368H50.789Z" transform="translate(-32 0)"/></g></g></svg>
