<svg xmlns="http://www.w3.org/2000/svg" xmlns:xlink="http://www.w3.org/1999/xlink" width="28.62" height="28.62" viewBox="0 0 28.62 28.62"><defs><style>.a{fill:url(#a);}</style><linearGradient id="a" x1="0.5" x2="0.5" y2="1" gradientUnits="objectBoundingBox"><stop offset="0" stop-color="#355834"/><stop offset="1" stop-color="#112b27"/></linearGradient></defs><ellipse class="a" cx="1.5" cy="1" rx="1.5" ry="1" transform="translate(20.01 10.62)"/><path class="a" d="M24.148,2.236H22.694V1.118a1.118,1.118,0,1,0-2.236,0V2.236H15.372V1.118a1.118,1.118,0,0,0-2.236,0V2.236H8.105V1.118a1.118,1.118,0,1,0-2.236,0V2.236h-1.4A4.477,4.477,0,0,0,0,6.708v17.44A4.477,4.477,0,0,0,4.472,28.62h8.552a1.118,1.118,0,1,0,0-2.236H4.472a2.238,2.238,0,0,1-2.236-2.236V6.708A2.238,2.238,0,0,1,4.472,4.472h1.4V5.59a1.118,1.118,0,0,0,2.236,0V4.472h5.031V5.59a1.118,1.118,0,0,0,2.236,0V4.472h5.087V5.59a1.118,1.118,0,1,0,2.236,0V4.472h1.453a2.238,2.238,0,0,1,2.236,2.236V13.08a1.118,1.118,0,0,0,2.236,0V6.708A4.477,4.477,0,0,0,24.148,2.236Z"/><path class="a" d="M276.764,270a6.764,6.764,0,1,0,6.764,6.764A6.771,6.771,0,0,0,276.764,270Zm0,11.291a4.528,4.528,0,1,1,4.528-4.528A4.533,4.533,0,0,1,276.764,281.291Z" transform="translate(-254.908 -254.908)"/><path class="a" d="M373.739,332.292h-.5v-1.174a1.118,1.118,0,1,0-2.236,0v2.292a1.118,1.118,0,0,0,1.118,1.118h1.621a1.118,1.118,0,0,0,0-2.236Z" transform="translate(-350.262 -311.554)"/><circle class="a" cx="1" cy="1" r="1" transform="translate(16.01 10.62)"/><ellipse class="a" cx="1.5" cy="1" rx="1.5" ry="1" transform="translate(10.01 15.62)"/><circle class="a" cx="1" cy="1" r="1" transform="translate(6.01 10.62)"/><circle class="a" cx="1" cy="1" r="1" transform="translate(6.01 15.62)"/><circle class="a" cx="1" cy="1" r="1" transform="translate(6.01 20.62)"/><ellipse class="a" cx="1.5" cy="1" rx="1.5" ry="1" transform="translate(10.01 20.62)"/><ellipse class="a" cx="1.5" cy="1" rx="1.5" ry="1" transform="translate(10.01 10.62)"/></svg>
