<svg xmlns="http://www.w3.org/2000/svg" width="21.47" height="19.084" viewBox="0 0 21.47 19.084"><defs><style>.a{fill:#355834;}</style></defs><g transform="translate(0 -21.333)"><g transform="translate(0 21.333)"><path class="a" d="M18.989,22.538a1.794,1.794,0,0,0-1.694-1.2H4.175a1.794,1.794,0,0,0-1.694,1.2L0,29.683v9.542a1.2,1.2,0,0,0,1.193,1.193H2.386a1.192,1.192,0,0,0,1.193-1.193V38.032H17.892v1.193a1.2,1.2,0,0,0,1.193,1.193h1.193a1.192,1.192,0,0,0,1.193-1.193V29.683ZM4.175,34.454a1.789,1.789,0,1,1,1.789-1.789A1.787,1.787,0,0,1,4.175,34.454Zm13.121,0a1.789,1.789,0,1,1,1.789-1.789A1.787,1.787,0,0,1,17.3,34.454ZM2.386,28.49l1.789-5.368H17.3l1.789,5.368Z" transform="translate(0 -21.333)"/></g></g></svg>
