<svg xmlns="http://www.w3.org/2000/svg" width="21.47" height="30.671" viewBox="0 0 21.47 30.671"><defs><style>.a{fill:#355834;}</style></defs><g transform="translate(-64)"><g transform="translate(64)"><path class="a" d="M76.261,4.624,77.419,2.3H82.4V0H67.067V2.3h7.284L73.186,4.624C68.386,4.769,64,5.728,64,9.968V22.912a4.939,4.939,0,0,0,3.972,4.562L65.534,29.9v.767h3.42L72.021,27.6H77.8l3.067,3.067h3.067V29.9l-2.3-2.3h-.123c2.592,0,3.957-2.109,3.957-4.693V9.968C85.47,5.682,81.467,4.754,76.261,4.624ZM74.735,25.3a2.3,2.3,0,1,1,2.3-2.3A2.3,2.3,0,0,1,74.735,25.3ZM82.4,18.4H67.067V10.735H82.4Z" transform="translate(-64)"/></g></g></svg>
