<svg xmlns="http://www.w3.org/2000/svg" width="34.922" height="28.417" viewBox="0 0 34.922 28.417"><defs><style>.a{fill:#355834;}</style></defs><g transform="translate(0 -39.486)"><g transform="translate(0 39.486)"><path class="a" d="M33.8,40.03c-2.083,2.463-7.346,6.88-18.148,6.526H4.885A4.885,4.885,0,0,0,0,51.44v1.222a4.884,4.884,0,0,0,4.885,4.884H7.556l5.676,9.34A2.171,2.171,0,0,0,16,67.691l2.355-1.162A1.752,1.752,0,0,0,19.089,64l-3.94-6.453h.5c10.8-.354,16.067,4.063,18.148,6.527.7.825,1.126.72,1.126-.359V40.39C34.922,39.311,34.494,39.206,33.8,40.03ZM9.687,54.147H4.558a.733.733,0,0,1,0-1.466H9.687a.733.733,0,0,1,0,1.466Zm0-3.256H4.558a.733.733,0,0,1,0-1.466H9.687a.733.733,0,0,1,0,1.466Z" transform="translate(0 -39.486)"/></g></g></svg>
