<svg xmlns="http://www.w3.org/2000/svg" xmlns:xlink="http://www.w3.org/1999/xlink" width="287.578" height="175.409" viewBox="0 0 287.578 175.409"><defs><style>.a,.g{opacity:0.5;}.b{fill:url(#a);}.c{fill:#260c4f;}.d{fill:url(#b);}.e{opacity:0.24;fill:url(#c);}.e,.g,.i{mix-blend-mode:multiply;isolation:isolate;}.f,.g{fill:url(#d);}.h{fill:url(#f);}.i{opacity:0.25;fill:url(#g);}</style><linearGradient id="a" x1="0.495" y1="2.468" x2="0.503" y2="-0.137" gradientUnits="objectBoundingBox"><stop offset="0" stop-color="#255b51"/><stop offset="1" stop-color="#112b27"/></linearGradient><linearGradient id="b" x1="0.656" y1="0.1" x2="1.559" y2="-0.638" gradientUnits="objectBoundingBox"><stop offset="0" stop-color="#255b51"/><stop offset="0.801" stop-color="#3a7b05"/></linearGradient><linearGradient id="c" x1="0.629" y1="0.034" x2="1.536" y2="-0.72" xlink:href="#b"/><linearGradient id="d" x1="0.5" y1="0.046" x2="0.5" y2="1.018" gradientUnits="objectBoundingBox"><stop offset="0" stop-color="#c7dc5e"/><stop offset="1" stop-color="#3a7b05"/></linearGradient><linearGradient id="f" x1="1.513" y1="0.161" x2="0.862" y2="-0.84" gradientUnits="objectBoundingBox"><stop offset="0" stop-color="#0e4f24"/><stop offset="0.235" stop-color="#20643e"/><stop offset="0.538" stop-color="#337b5a"/><stop offset="0.803" stop-color="#3e8a6b"/><stop offset="1" stop-color="#438f72"/></linearGradient><linearGradient id="g" x1="1.593" y1="0.341" x2="0.826" y2="-0.781" xlink:href="#f"/></defs><g class="a" transform="translate(-218.683 -315.889)"><path class="b" d="M455.551,479.983c8.277-1.99,14.549-9.607,14.424-17.519S463.341,447.107,455,445.342s-17.7,2.318-21.529,9.392c4.5-9.4,1.694-21.675-7.319-27.683s-23.463-3.974-29.193,4.83c-7.2-18.858-30.617-31.051-51.778-26.962S307.841,428.852,309.4,448.8c2.32-4.338-1.992-9.365-6.73-11.418-10.973-4.757-25.579-.206-31.207,9.724s-1.37,23.633,9.1,29.281c7.1,3.831,15.744,4.013,23.964,4.091l68.105.652c28.32.271,56.72.538,84.871-2.325"/><path class="c" d="M384.032,464.023c.3-.495.744-1.221,1.306-2.145,1.161-1.826,2.724-4.493,4.6-7.694l.1-.173a3.772,3.772,0,0,1-.932-.431,21.389,21.389,0,0,1-2.471-1.679,50.392,50.392,0,0,1-6.7-6.165,64.807,64.807,0,0,1-5.729-7.254c-1.43-2.12-2.275-3.653-2.335-3.742s-.84-1.659-1.81-4.026a59.181,59.181,0,0,1-2.841-8.806c-.214-.807-.366-1.628-.525-2.431s-.309-1.6-.419-2.357c-.219-1.505-.422-2.907-.6-4.108-.346-2.377-.751-3.931-.488-4.048.246-.115,1.175,1.3,2.015,3.654.428,1.168.844,2.551,1.279,4,.214.728.452,1.464.7,2.211s.483,1.509.775,2.255a68.862,68.862,0,0,0,3.494,8.08c1.1,2.155,1.931,3.576,1.985,3.662s.753,1.576,1.936,3.686a77.372,77.372,0,0,0,4.767,7.4c3.351,4.727,7.543,8.77,8.042,9.837,1.814-3.15,3.816-6.839,5.871-10.834a17.229,17.229,0,0,1-2.727-1.677,43.067,43.067,0,0,1-6.266-5.618c-1.045-1.136-2.037-2.327-2.932-3.482-.877-1.166-1.677-2.282-2.311-3.283-1.284-1.994-2.038-3.435-2.079-3.53a39.661,39.661,0,0,1-1.495-3.834,63.8,63.8,0,0,1-2.123-8.24c-.579-2.992-1-5.965-1.262-8.2s-.349-3.74-.076-3.807.883,1.322,1.614,3.458,1.583,5.008,2.5,7.835a79.3,79.3,0,0,0,2.831,7.608c.887,2.024,1.617,3.318,1.653,3.4s.633,1.458,1.656,3.415c.505.983,1.151,2.09,1.858,3.266.725,1.164,1.531,2.385,2.383,3.575a73.871,73.871,0,0,0,5.1,6.26c.864.962,1.571,1.735,1.977,2.259,2.014-3.934,4.068-8.141,6.033-12.4.945-2.033,1.869-4.076,2.768-6.1a17.817,17.817,0,0,1-2.539-2.252,53.306,53.306,0,0,1-5.444-6.7,78.527,78.527,0,0,1-4.554-7.442c-1.141-2.117-1.833-3.6-1.877-3.694s-.659-1.613-1.449-3.875-1.742-5.264-2.555-8.282a52.785,52.785,0,0,1-1.86-8.427c-.231-2.407.182-4,.439-3.971.3.016.434,1.535,1.109,3.673.633,2.148,1.866,4.906,3.029,7.817,1.146,2.856,2.347,5.688,3.306,7.808s1.653,3.54,1.692,3.629.607,1.565,1.525,3.691,2.2,4.893,3.637,7.576,3.008,5.284,4.239,7.218c.692,1.093,1.261,1.983,1.588,2.586,2.167-4.91,4.172-9.7,5.923-13.985a4.683,4.683,0,0,1-.776-.288,12.127,12.127,0,0,1-2.8-1.857,26.621,26.621,0,0,1-3.249-3.419c-1.08-1.331-2.151-2.744-3.238-4.19a58.419,58.419,0,0,1-5.487-8.557,45.305,45.305,0,0,1-1.955-4.489c-.038-.114-.624-1.937-1.28-4.653a75.9,75.9,0,0,1-1.687-9.969,63.253,63.253,0,0,1-.246-9.966c.168-2.7.51-4.478.779-4.469.289.008.482,1.787.8,4.424s.791,6.133,1.5,9.584a90.746,90.746,0,0,0,2.45,9.393c.821,2.539,1.48,4.23,1.514,4.333s.533,1.848,1.516,4.249a65.334,65.334,0,0,0,4.476,8.526c.915,1.52,1.838,3.071,2.7,4.463a35.208,35.208,0,0,0,2.534,3.636,29.393,29.393,0,0,0,2.641,2.78c.584-1.432,1.139-2.805,1.66-4.1.946-2.359,1.783-4.468,2.484-6.243-.1-.036-.149-.08-.157-.131a.121.121,0,0,1,.005-.056c-.064-.039-.129-.08-.2-.129a5.427,5.427,0,0,1-.938-.906c-.305-.364-.63-.781-.986-1.243a46.063,46.063,0,0,1-4.46-7.3,60.118,60.118,0,0,1-3.269-8.025c-.748-2.27-1.155-3.851-1.174-3.949s-.341-1.7-.67-4.06c-.313-2.362-.606-5.481-.7-8.585a57.391,57.391,0,0,1,.257-8.522c.3-2.331.842-3.812,1.109-3.763.283.047.276,1.565.468,3.8.176,2.232.573,5.233,1.019,8.226s1.02,5.956,1.518,8.185c.513,2.226.924,3.72.944,3.814s.3,1.62.816,3.832a72.684,72.684,0,0,0,2.314,7.925,81.186,81.186,0,0,0,3.171,7.6l.647,1.4a9.5,9.5,0,0,0,.514.995c.024.039.046.073.07.109,1.208-3.071,1.94-4.97,2.015-5.151.1-.258,1.564-3.945,3.788-9.552a5.273,5.273,0,0,1-2.56-1.867,18.329,18.329,0,0,1-1.922-2.684c-.313-.509-.6-1.04-.9-1.584s-.6-1.1-.877-1.665a56.139,56.139,0,0,1-2.758-6.436c-.649-1.823-1.02-3.1-1.034-3.175s-.3-1.375-.575-3.291a60.934,60.934,0,0,1-.578-6.982c-.162-5.07.68-10,1.22-9.958.574.037.759,4.919,1.632,9.689.407,2.389.938,4.752,1.389,6.526s.829,2.964.844,3.039.255,1.3.678,3.078,1.071,4.111,1.828,6.41c.18.579.382,1.149.582,1.71s.387,1.122.586,1.646a28.662,28.662,0,0,0,1.186,2.783c.605,1.23,1.221,2.054,1.378,2.467l.917-2.313c1.071-2.668,2.247-5.681,3.56-8.869a15.905,15.905,0,0,1-1.388-1.837,37.758,37.758,0,0,1-3.161-6.1,47.147,47.147,0,0,1-2.122-6.647c-.45-1.878-.64-3.189-.668-3.266.008-.082-.113-1.4-.118-3.333a47.3,47.3,0,0,1,.5-6.965A37.842,37.842,0,0,1,421.1,336.6c.643-1.755,1.245-2.849,1.5-2.774.281.081.195,1.313.04,3.111s-.309,4.185-.329,6.562a59.891,59.891,0,0,0,.369,6.533c.2,1.783.422,2.985.414,3.061.027.072.093,1.291.316,3.071a59.92,59.92,0,0,0,1.173,6.432c.576,2.305,1.283,4.584,1.857,6.3.172.514.322.972.446,1.376,1.282-3.073,2.7-6.285,4.266-9.5a34.293,34.293,0,0,1-2.239-7.366c-.44-2.045-.773-4.123-.982-5.706s-.307-2.671-.311-2.738,0-1.158.078-2.753a34.1,34.1,0,0,1,.706-5.9,13.905,13.905,0,0,1,2.443-5.527c1.049-1.311,2.059-1.811,2.229-1.622.211.214-.366,1.068-.866,2.415a16.733,16.733,0,0,0-.969,5.134,42.865,42.865,0,0,0,.19,5.438c.138,1.533.232,2.579.237,2.643s-.005,1.116-.012,2.656.031,3.577.1,5.611c.061,2.26.19,4.518.2,6.1q1.032-2.039,2.152-4.05c.51-.912,1.04-1.814,1.581-2.706a5.17,5.17,0,0,1-.62-1.024,10.522,10.522,0,0,1-.84-4.075,17.916,17.916,0,0,1,.425-4.144c.237-1.113.472-1.842.486-1.886s.337-.744.877-1.707,1.279-2.177,2.1-3.346c1.623-2.348,3.557-4.4,4.025-4.094s-.578,2.856-1.485,5.418c-.459,1.279-.908,2.565-1.22,3.53s-.492,1.607-.507,1.646-.32.643-.7,1.542a21.444,21.444,0,0,0-1.141,3.319,16.388,16.388,0,0,0-.45,2.966q.174-.42.4-.907a40.366,40.366,0,0,1,3.1-5.489,51.144,51.144,0,0,1,3.842-5.124c1.143-1.356,2-2.219,2.049-2.278l.689-.573c.412-.342.987-.82,1.707-1.346a41.428,41.428,0,0,1,5.422-3.487,30.614,30.614,0,0,1,5.853-2.479,11.671,11.671,0,0,1,2.041-.457c.507-.062.814-.038.862.093s-.161.363-.561.667-1,.66-1.688,1.131c-1.409.879-3.222,2.121-4.954,3.453a52.4,52.4,0,0,0-4.564,3.93c-.606.563-1.089,1.066-1.437,1.422l-.586.59c-.042.057-.914.775-2.132,1.91s-2.786,2.684-4.284,4.31-2.951,3.3-4.035,4.585q-.221.254-.424.48c1.373-.8,3.941-1.979,6.45-3.265,1.871-.961,3.727-1.937,5.1-2.733l2.373-1.366,2.477-1.171c1.441-.676,3.31-1.642,5.181-2.614,3.735-1.953,7.418-4.052,7.753-3.6s-2.773,3.374-6.207,6.007c-1.718,1.31-3.5,2.567-4.895,3.456s-2.373,1.467-2.43,1.507c-.065.025-1.091.51-2.628,1.138s-3.589,1.383-5.659,2.029c-3.839,1.192-7.732,1.9-8.421,1.58q-1.078,1.779-2.082,3.619c-.879,1.615-1.713,3.254-2.506,4.9a14.778,14.778,0,0,1,2.284-.587c1.6-.341,3.706-.746,5.786-1.263s4.13-1.109,5.656-1.646c1.531-.516,2.555-.919,2.622-.93.061-.034,1.128-.3,2.675-.773,1.556-.449,3.573-1.171,5.587-1.926,4.022-1.524,7.943-3.4,8.245-2.92.293.461-3.129,3.232-7,5.5a54.462,54.462,0,0,1-5.523,2.843c-1.57.7-2.682,1.1-2.746,1.134-.071.012-1.208.333-2.9.679a49.635,49.635,0,0,1-6.176.87,40.1,40.1,0,0,1-6.141.007,8.494,8.494,0,0,1-2.6-.505c-1.537,3.216-2.92,6.44-4.176,9.53.552-.085,1.384-.145,2.389-.229a38.038,38.038,0,0,0,6.523-1.079,58.222,58.222,0,0,0,6.334-2.116c1.694-.675,2.851-1.216,2.925-1.24l9.541-3.344c2.325-.835,4.61-1.727,6.331-2.408s2.9-1.124,3.05-.883-.754,1.135-2.286,2.262a51.425,51.425,0,0,1-5.924,3.644c-2.229,1.2-4.506,2.291-6.225,3.11s-2.928,1.362-3,1.39-1.321.48-3.233,1.013a46.656,46.656,0,0,1-7,1.392,25.718,25.718,0,0,1-7.1-.166,12.25,12.25,0,0,1-2.583-.69c-1.393,3.454-2.634,6.727-3.759,9.607q-.387,1-.75,1.938c1.576-.755,4.593-1.843,7.587-2.956,2.191-.834,4.378-1.666,5.995-2.367,1.628-.68,2.7-1.194,2.779-1.21s1.2-.419,2.828-1.04,3.734-1.544,5.788-2.572c2.025-1.066,3.994-2.247,5.445-3.208s2.448-1.611,2.659-1.4c.1.1-.014.4-.3.849a12.363,12.363,0,0,1-1.329,1.746,32.482,32.482,0,0,1-4.971,4.454A49.313,49.313,0,0,1,444,378.506c-1.648.854-2.8,1.378-2.873,1.406s-1.266.454-3.035.966c-1.764.536-4.111,1.107-6.452,1.6a51.19,51.19,0,0,1-8.77,1.211c-2.107,5.44-3.485,9-3.584,9.254-.067.163-.675,1.706-1.691,4.235.256-.094.528-.192.818-.295,1.741-.616,4.04-1.444,6.3-2.356,2.251-.942,4.471-1.942,6.11-2.792,1.646-.833,2.737-1.454,2.812-1.477.063-.046,1.218-.537,2.876-1.341,1.669-.787,3.808-1.946,5.92-3.165,2.1-1.243,4.145-2.57,5.69-3.58s2.617-1.66,2.815-1.45-.528,1.242-1.791,2.649a47.315,47.315,0,0,1-5.08,4.735,61.563,61.563,0,0,1-5.741,4.075c-1.649,1.033-2.824,1.66-2.891,1.708-.078.024-1.291.579-3.112,1.266a61.684,61.684,0,0,1-6.726,2.1,47.388,47.388,0,0,1-6.85,1.172c-.642.051-1.21.077-1.685.079-.743,1.843-1.649,4.071-2.683,6.582-.456,1.107-.94,2.274-1.444,3.48.606-.23,1.438-.5,2.426-.807,2.119-.667,4.933-1.534,7.7-2.53,2.754-1.022,5.478-2.107,7.469-3.08,1.014-.447,1.83-.894,2.425-1.189l.991-.5c.046-.013.4-.186,1.005-.464l1.073-.494c.416-.182.872-.4,1.357-.663a66.832,66.832,0,0,0,6.935-4.02c2.41-1.628,4.7-3.434,6.391-4.848s2.826-2.386,3.052-2.2c.108.09-.033.454-.367,1.028a19.341,19.341,0,0,1-1.549,2.262,44.878,44.878,0,0,1-5.786,6.03,56.172,56.172,0,0,1-6.849,5c-.492.321-.954.6-1.376.827l-1.093.618c-.615.345-.986.555-1.033.569l-1.088.453c-.654.263-1.555.66-2.662,1.035a68.624,68.624,0,0,1-8.091,2.379,64.634,64.634,0,0,1-8.194,1.327,22.137,22.137,0,0,1-3.082.1c-1.849,4.408-3.984,9.369-6.3,14.445.654-.262,1.754-.591,3.126-.989,2.291-.665,5.315-1.6,8.293-2.657,2.966-1.1,5.9-2.292,8.058-3.324,1.1-.479,1.984-.964,2.633-1.272l1.08-.529,1.1-.5c.651-.3,1.587-.679,2.654-1.221,2.173-1.01,4.954-2.51,7.689-4.1,2.711-1.621,5.352-3.36,7.322-4.7s3.31-2.228,3.508-2.013c.182.2-.8,1.48-2.5,3.223a64.5,64.5,0,0,1-6.733,5.868,79.846,79.846,0,0,1-7.533,5.015c-1.066.657-2.008,1.124-2.666,1.491l-1.11.6-1.166.478c-.7.274-1.663.705-2.849,1.108a79.711,79.711,0,0,1-8.669,2.621,64.691,64.691,0,0,1-8.818,1.46,18.546,18.546,0,0,1-3.694.046c-.893,1.952-1.81,3.917-2.749,5.872-2.007,4.218-4.108,8.378-6.171,12.266,1.382-.737,5.868-2.048,10.257-3.527,2.67-.9,5.273-1.911,7.2-2.772s3.234-1.508,3.317-1.539,1.433-.559,3.409-1.39,4.58-1.977,7.2-3.108c5.242-2.255,10.506-4.365,10.76-3.866s-4.552,3.511-9.461,6.419c-2.451,1.456-4.95,2.887-6.891,3.924s-3.308,1.694-3.392,1.732-1.487.609-3.6,1.313a65.711,65.711,0,0,1-7.8,2.053c-5.17,1.028-10.3,1.57-11.272,1.269-2.249,4.218-4.447,8.1-6.424,11.348-1.953,3.166-3.591,5.794-4.827,7.574-.611.893-1.092,1.6-1.419,2.074a4.433,4.433,0,0,1-.54.708A4.51,4.51,0,0,1,384.032,464.023Z"/><path class="c" d="M390.7,454.328c0-.289,1.332-.566,3.313-.91s4.608-.806,7.214-1.355c2.6-.58,5.186-1.22,7.119-1.8,1.937-.563,3.239-1,3.323-1.013.078-.036,1.418-.336,3.363-.864,1.952-.509,4.49-1.308,7.011-2.166,2.51-.885,4.991-1.856,6.862-2.593s3.153-1.2,3.3-.946c.138.232-.879,1.152-2.554,2.335a57.141,57.141,0,0,1-6.481,3.838,74.416,74.416,0,0,1-6.979,3.081c-1.969.751-3.345,1.179-3.426,1.216-.089.012-1.488.361-3.561.746a74.5,74.5,0,0,1-7.568,1,57.158,57.158,0,0,1-7.537.1C392.054,454.854,390.706,454.6,390.7,454.328Z"/><path class="c" d="M317.634,315.889s21.473,17.759,21.448,37.425c1.392,2.663,2.669,5.391,3.854,8.158-2.015-9.156-3.906-22.976-.793-34.934,0,0,12.958,25.7,4.225,43.764q1.459,4.191,2.651,8.467c.477-8.386,2.484-26.4,10.879-39.226,0,0,4.077,28.456-9.928,42.8q1.652,6.5,2.785,13.127c1.015-4,7.22-26.594,20.881-39.423,0,0-2.845,29.825-20.8,39.9.371,2.4.587,4.822.887,7.231l.419,3.647.2,3.663.089,1.653.048.058c2.238-7.618,8.461-25.542,20.057-36.432,0,0-2.754,28.874-19.943,39.4l.142,2.642c0,2.445-.044,4.89-.1,7.333l-.077,3.663c-.05.956-.139,1.91-.221,2.864,3.053-7.819,10.551-24.329,22.521-33.927,0,0-4.979,28.443-22.839,37.664l-.369,4.345c-.192,2.43-.733,4.824-1.082,7.234q-.574,3.609-1.227,7.2c.308-4.869.956-9.683,1.173-14.53l.2-5.125c-4.733-1.432-26.261-8.528-38.23-22.337,0,0,28.181,3.825,38.284,20.981l.031-.785c.041-1.21.118-2.418.128-3.629l-.084-3.631c-.064-2.42-.111-4.837-.118-7.255l-.369-5.409c-7.009-.679-27.134-3.439-40.6-13.465,0,0,26.384-2.159,40.413,10.787l-.194-2.763-.465-3.594c-.333-2.392-.587-4.8-.982-7.177-.039-.26-.086-.518-.126-.777-4.63-.349-27.476-2.59-42.276-13.61,0,0,28.617-2.34,42.091,12.478q-.834-5.1-2-10.125c-5.656-1.818-26.042-9.076-37.471-22.5,0,0,25.662,3.721,36.638,19.072q-1.253-4.941-2.779-9.81c-5.812-1.877-26-9.127-37.356-22.467,0,0,24.676,3.577,35.984,18.19-.6-1.821-1.271-3.619-1.976-5.4-.678-1.893-1.492-3.728-2.29-5.572l0,.045S320.88,336.246,317.634,315.889Z"/><path class="c" d="M325.567,429.316s-2.659,8.728,1.259,19.867q-1.864-2.01-3.766-3.907c-.136-4.756-1.184-15.728-7.637-23.413,0,0-1.566,9.169,3.914,19.856q-2.712-2.494-5.476-4.776c-.017-3.973-.672-16.137-7.654-24.452,0,0-1.857,10.9,5.583,22.784q-4.293-3.395-8.66-6.295c-.163-4.871-1.278-15.628-7.631-23.194,0,0-1.7,10,4.685,21.28q-3.063-1.935-6.128-3.656c-.62-4.837-2.741-15.435-9.772-22.367,0,0-.755,10.044,6.585,20.638q-2.977-1.569-5.928-2.954c-1.331-4.616-5.069-14.9-13.175-20.71,0,0,.8,9.779,9.372,19q-3.457-1.5-6.837-2.768c-1.23-4.407-4.948-15.118-13.284-21.1,0,0,.857,10.533,10.378,20.039q-2.527-.889-4.988-1.66c-2.082-3.735-8.382-13.691-18.22-17.574,0,0,3.205,9.445,13.979,16.311-2.939-.83-5.779-1.537-8.494-2.14-2.312-4.032-8.5-13.384-17.963-17.119,0,0,3.194,9.417,13.929,16.28q-2.876-.558-5.51-.967c-3.809-1.939-15.213-6.821-25.445-1.885a26.848,26.848,0,0,0,22.654,3.966c1.455.2,2.988.441,4.581.713-4.853,1.452-14.569,5.183-20.172,12.955,0,0,12.165-.956,22.176-12.6,2.031.376,4.151.809,6.356,1.316-4.782,1.408-14.687,5.134-20.365,13.012,0,0,12.156-.955,22.165-12.586,2.476.6,5.046,1.292,7.687,2.082-5.182,1.1-14.548,3.928-20.572,10.758,0,0,11.936.23,22.941-10.028,1.779.565,3.585,1.17,5.418,1.831-5.287,1.277-13.993,4.267-19.634,10.827,0,0,11.569.08,22.306-9.834q3.832,1.465,7.772,3.24c-5.238.747-14.789,2.949-21.261,9.374,0,0,11.8,1.011,23.421-8.378q3.834,1.809,7.716,3.942c-5.282.3-14.988,1.689-21.981,7.547,0,0,11.684,2.005,24.057-6.381q3.717,2.135,7.432,4.593c-5.093-.2-15.421.2-23.2,5.7,0,0,11.69,3.015,24.855-4.586q4.4,3.017,8.734,6.542c-5.247-.752-15-1.309-23,3.027,0,0,11.062,4.3,24.866-1.472q3.383,2.865,6.682,6.071c-5.217-.76-15.058-1.358-23.115,3.01,0,0,10.99,4.267,24.731-1.416q2.844,2.866,5.6,6.015c-5.193-.767-15.1-1.4-23.2,3,0,0,10.926,4.242,24.61-1.367a137.859,137.859,0,0,1,11.921,16.388l2.113-1.31a140.2,140.2,0,0,0-12.739-17.4C330.667,448,330.8,437.457,325.567,429.316Z"/><path class="d" d="M400.474,481.722s37.273-11.455,30.317-18.986a13.425,13.425,0,0,0-15.124-3.794s40.7-6.537,37.548-15.418-13.625-5.249-13.625-5.249,35.748-3.438,37.473-12.787-12.618-5.019-12.618-5.019,34.154-2.956,33.436-10.431-11.131-3.193-11.131-3.193,21.368-6.319,19.38-13.343-20.786-1.281-27.592,2.981c0,0,4.468-4.694-2.438-8.293s-21.4,16.161-21.4,16.161,4.124-8.268-1.388-11.018-25.136,14.881-28.792,28.024c0,0,.406-12.831-9.756-5.95s-16.93,35.411-16.93,35.411-1.169-8.743-7.637-7.793-12.062,28.054-11.6,36.21S400.474,481.722,400.474,481.722Z"/><path class="e" d="M505.568,392.331c-3.728-5.142-20.65.156-27.03,4.152,0,0,4.468-4.694-2.438-8.293s-21.4,16.161-21.4,16.161,4.124-8.268-1.388-11.018-25.136,14.881-28.792,28.024c0,0,.406-12.831-9.756-5.95s-16.93,35.411-16.93,35.411-1.169-8.743-7.637-7.793-12.062,28.054-11.6,36.21a3.611,3.611,0,0,0,1.071,2.449C418.631,433.112,479.524,400.566,505.568,392.331Z"/><path class="f" d="M427.814,432.423a46.272,46.272,0,0,0-.814-4.932.755.755,0,0,0-1.394-.183c-1.738,3.1-7.1,8.362-17.939,10.7a3.78,3.78,0,0,1-2.38-.223,2.439,2.439,0,0,1-1.157-3.5c.743-1.7,2.376-2.819,3.929-3.842l6.74-4.44a37.187,37.187,0,0,0,6.106-4.654,11.192,11.192,0,0,0,1.484-15.249,31.514,31.514,0,0,0-5.061-5.708c-.19-.177-.516.317-.543.757a8.773,8.773,0,0,1-1.229,3.578c-4.085,6.442-13.344,7.946-14.179,7.843a2.322,2.322,0,0,1-1.778-3.785,7.588,7.588,0,0,1,1.87-1.827,77.507,77.507,0,0,1,7.71-5.4c1.689-1,3.567-2.013,4.347-3.815a6.074,6.074,0,0,0,.432-2.321,10.734,10.734,0,0,0-2.673-7.213,22.31,22.31,0,0,0-3-2.643q-3.9-3.06-7.654-6.29a36.17,36.17,0,0,1-5.59-5.632,14.418,14.418,0,0,1-2.714-5.885c-.086-.462-.295-.419-.377-.059-1.491,6.5-19.255,10.038-20.875,10.323a40.553,40.553,0,0,0-8.133,3.273,13.5,13.5,0,0,0-2.292,1.833,8.481,8.481,0,0,0-1.645,2.7c-1.8,4.587-.417,9.9,2.17,14.091s6.263,7.583,9.54,11.264a7.484,7.484,0,0,1,2.294,4.218,1.73,1.73,0,0,1-.212,1.009c-.637,1.07-2.058.711-3.1.241a37.174,37.174,0,0,1-13.618-10.18,26.887,26.887,0,0,1-6.185-15.686c-.068-1.753-.208-3-.8-2.39a10.029,10.029,0,0,1-1.908,1.593c-4.47,2.766-9.021,6.291-10.611,11.339-1.326,4.207-.331,8.895,1.85,12.73a36.219,36.219,0,0,0,8.857,9.732c1.135.931,14.745,8.686,16.518,9.561,1.425.7,3.018,1.22,3.842,2.719a2.224,2.224,0,0,1-.054,2.348c-.8,1.133-2.335.921-3.577.57-3.44-.972-24.54-9.447-30.727-22.268-.105-.218-.584-.555-.549.006.323,5.259-1.385,10.515-2.157,15.777-2.092,14.261,3.536,29.035,13.673,39.281,12.9,13.035,23.009,5.986,25.953,3.207s5.308-6.165,8.486-8.673c0,0,3.545-2.05,3.723-.707a8.647,8.647,0,0,0,.885,2.616,24.8,24.8,0,0,0,3.034,4.833,16.178,16.178,0,0,0,7.7,5.4c4.288,1.292,8.926.326,13.169-1.105,7.357-2.483,14.3-9.4,17.659-16.38C428.909,452.583,429.079,441.5,427.814,432.423Z"/><path class="g" d="M391.954,367.7c-1.491,6.5-19.255,10.038-20.875,10.323a40.553,40.553,0,0,0-8.133,3.273,13.5,13.5,0,0,0-2.292,1.833,8.481,8.481,0,0,0-1.645,2.7c-1.8,4.587-.417,9.9,2.17,14.091s6.263,7.583,9.54,11.264a7.484,7.484,0,0,1,2.294,4.218,1.73,1.73,0,0,1-.212,1.009c-.637,1.07-2.058.711-3.1.241a37.174,37.174,0,0,1-13.618-10.18,26.887,26.887,0,0,1-6.185-15.686c-.068-1.753-.208-3-.8-2.39a10.029,10.029,0,0,1-1.908,1.593c-4.47,2.766-9.021,6.291-10.611,11.339-1.326,4.207-.331,8.895,1.85,12.73a36.219,36.219,0,0,0,8.857,9.732c1.135.931,14.745,8.686,16.518,9.561,1.425.7,3.018,1.22,3.842,2.719a2.224,2.224,0,0,1-.054,2.348c-.8,1.133-2.335.921-3.577.57-3.44-.972-24.54-9.447-30.727-22.268-.105-.218-.584-.555-.549.006.323,5.259-1.385,10.515-2.157,15.777-2.092,14.261,3.536,29.035,13.673,39.281,12.9,13.035,23.009,5.986,25.953,3.207s5.308-6.165,8.486-8.673a10.776,10.776,0,0,1,2.9-1.123C382.049,465.149,392.036,367.341,391.954,367.7Z"/><path class="h" d="M386.115,460.886s-13.232-23.7-31.444-40.237-19.526-15.758-19.526-15.758l-3.448,5.565-.293-8.318s-7.714-8.907-30.472-19.935c0,0-.451,15.477-.915,14.688s-5.022-17.565-5.022-17.565-20.671-10.486-34.308-12.019c0,0-1.179,20.858,8.08,38.409l13.158,2.522L271.8,412.071s5.054,14.009,12.057,20.5l10.886-6.755-6.712,13.853s13.881,21.2,23.065,29.6l12.34-11.5L314.88,472.7s4.5,5.846,16.836,12.388,34.912,8.834,44.175,2.326S394.926,475.87,386.115,460.886Z"/><path class="i" d="M328.383,442.122c24.723,21.275,42.742,33.246,54.935,39.966-2.243,1.826-4.854,3.521-7.427,5.329-9.263,6.508-31.837,4.216-44.175-2.326S314.88,472.7,314.88,472.7l8.553-14.934-12.34,11.5c-9.184-8.4-23.065-29.6-23.065-29.6l6.712-13.853-10.886,6.755c-7-6.5-12.057-20.5-12.057-20.5l10.128-3.833-13.158-2.522c-9.259-17.551-8.08-38.409-8.08-38.409S275.387,396.517,328.383,442.122Z"/></g></svg>
