<svg xmlns="http://www.w3.org/2000/svg" xmlns:xlink="http://www.w3.org/1999/xlink" width="228.807" height="150.613" viewBox="0 0 228.807 150.613"><defs><style>.a{opacity:0.5;}.b{fill:#260c4f;}.c{fill:url(#a);}.d{opacity:0.24;fill:url(#b);}.d,.f{mix-blend-mode:multiply;isolation:isolate;}.e{fill:url(#c);}.f{opacity:0.25;fill:url(#d);}</style><linearGradient id="a" x1="46.173" y1="8.667" x2="47.99" y2="8.193" gradientUnits="objectBoundingBox"><stop offset="0" stop-color="#c7dc5e"/><stop offset="0.762" stop-color="#3a7b05"/></linearGradient><linearGradient id="b" x1="50.961" y1="8.626" x2="52.973" y2="8.151" gradientUnits="objectBoundingBox"><stop offset="0" stop-color="#c7dc5e"/><stop offset="1" stop-color="#3a7b05"/></linearGradient><linearGradient id="c" x1="7.396" y1="13.109" x2="6.401" y2="12.251" gradientUnits="objectBoundingBox"><stop offset="0" stop-color="#0e4f24"/><stop offset="0.235" stop-color="#20643e"/><stop offset="0.538" stop-color="#337b5a"/><stop offset="0.803" stop-color="#3e8a6b"/><stop offset="1" stop-color="#438f72"/></linearGradient><linearGradient id="d" x1="7.542" y1="13.587" x2="6.406" y2="12.601" xlink:href="#c"/></defs><g class="a" transform="translate(-520.592 -364.931)"><path class="b" d="M654.1,364.931s-18.071,11.044-20.174,25.842c-1.335,1.854-2.59,3.769-3.78,5.722,2.5-6.671,5.418-16.864,4.367-26.2,0,0-12.523,17.941-7.9,32.471q-1.55,2.994-2.908,6.084c.546-6.361.979-20.126-3.953-30.686,0,0-6.137,20.969,2.851,33.269-1.3,3.143-2.461,6.342-3.511,9.575-.332-3.12-2.563-20.786-11.457-31.913,0,0-1.078,22.746,11.341,32.266-.538,1.765-.962,3.565-1.447,5.345l-.709,2.7-.549,2.734-.246,1.233-.042.039c-.862-5.973-3.61-20.129-11.159-29.574,0,0-1.043,22.022,10.752,31.8l-.392,1.973c-.262,1.839-.494,3.683-.714,5.528l-.338,2.763c-.065.725-.1,1.453-.142,2.179-1.454-6.212-5.313-19.442-13.284-27.955,0,0,.677,21.937,13.12,30.8l-.191,3.309c-.118,1.849.03,3.708.033,5.559q.044,2.778.146,5.547c.294-3.7.325-7.388.685-11.057l.4-3.877c3.715-.568,20.678-3.583,31.173-12.68,0,0-21.615-.163-31.067,11.654l.061-.595c.1-.914.173-1.832.3-2.743l.455-2.724c.309-1.813.605-3.627.871-5.445l.862-4.029c5.346.245,20.785.34,32-5.75,0,0-19.617-4.471-31.569,3.754l.444-2.057.738-2.655c.508-1.763.959-3.545,1.513-5.294.058-.19.12-.379.179-.571,3.521.237,20.951,1.016,33.275-5.678,0,0-21.278-4.848-33.013,4.846q1.177-3.744,2.6-7.4c4.451-.757,20.571-4.017,30.619-12.888,0,0-19.708.031-29.622,10.4q1.475-3.582,3.149-7.08c4.575-.786,20.548-4.061,30.529-12.873,0,0-18.951.028-29.036,9.8.651-1.3,1.347-2.586,2.07-3.853.714-1.35,1.524-2.643,2.324-3.944l0,.033S649.461,379.9,654.1,364.931Z" transform="translate(3.615 0)"/><g transform="translate(572.848 381.53)"><path class="c" d="M594.367,488.9s-16.974-25.921-8.9-27a10.668,10.668,0,0,1,11.172,5.357s-21.564-24.653-15.13-28.484,10.994,3.7,10.994,3.7-20.111-20.246-16.42-26.838,10.261,3.337,10.261,3.337-19.381-19.144-15.148-23.348,8.427,3.7,8.427,3.7-9.858-14.708-5.077-17.994S587.9,391.1,589.9,397.163c0,0-.35-5.138,5.7-3.833s4.884,20.746,4.884,20.746,1.675-7.15,6.441-6.032,7.814,21.856,3.379,31.747c0,0,6.264-8.051,8.985,1.314s-7.622,30.243-7.622,30.243,5.152-4.752,8.624-.888-6.864,23.275-11.283,28.029S594.367,488.9,594.367,488.9Z" transform="translate(-570.592 -380.813)"/><g transform="translate(4.893 0)"><path class="d" d="M575.273,380.9c4.889-1.251,12.546,10.576,14.418,16.258,0,0-.35-5.138,5.7-3.833s4.884,20.746,4.884,20.746,1.675-7.15,6.441-6.032,7.814,21.856,3.379,31.747c0,0,6.264-8.051,8.985,1.314s-7.622,30.243-7.622,30.243,5.152-4.752,8.624-.888-6.864,23.275-11.283,28.029a2.868,2.868,0,0,1-1.9.953C607.726,449.964,587.016,399.158,575.273,380.9Z" transform="translate(-575.273 -380.813)"/></g></g><g transform="translate(601.926 404.325)"><path class="e" d="M628.837,507.037s12.79-13.593,19.447-29.3,5.8-16.476,5.8-16.476l-4.654-1.353,5.584-1.754s4.116-7.009,5.883-24.845c0,0-10.641,2.572-10.222,2.1s10.683-6.756,10.683-6.756,1.924-16.288-.469-26.03c0,0-14.484,3.071-24.089,12.762l1.6,9.593-5.159-6.308s-8.255,6.115-10.909,12.182l7.338,6.29-11.115-2.074s-10.923,13.577-14.32,21.51l10.932,6.414-12.314-3.148s-2.843,4.209-4.184,13.984,2.786,25.854,9.547,31.064S620.864,515.939,628.837,507.037Z" transform="translate(-598.415 -402.624)"/><path class="f" d="M627.055,463.509c-8.242,21.108-11.845,35.833-13.345,45.54-1.806-1.214-3.617-2.709-5.5-4.156-6.761-5.21-10.889-21.29-9.547-31.064s4.184-13.984,4.184-13.984l12.314,3.148-10.932-6.414c3.4-7.932,14.32-21.51,14.32-21.51l11.115,2.074-7.338-6.29c2.654-6.067,10.909-12.182,10.909-12.182l5.159,6.308-1.6-9.593c9.6-9.691,24.089-12.762,24.089-12.762S644.723,418.261,627.055,463.509Z" transform="translate(-598.415 -402.624)"/></g><g transform="translate(520.592 439.135)"><path class="b" d="M633.275,465.7c-.156-4.986.256-16.536,6.529-24.983,0,0,2.213,9.5-2.855,21.027q2.682-2.781,5.434-5.342c-.231-4.159-.305-16.931,6.483-26.071,0,0,2.624,11.294-4.42,24.2q4.281-3.82,8.67-7.13c-.134-5.108.362-16.437,6.537-24.753,0,0,2.408,10.357-3.574,22.565Q659.164,443,662.265,441c.347-5.1,1.905-16.326,8.83-24.021,0,0,1.417,10.466-5.6,22.012q3.016-1.829,6.02-3.462c1.1-4.914,4.374-15.91,12.494-22.5,0,0-.223,10.285-8.622,20.468q3.524-1.787,6.984-3.325c1.012-4.689,4.234-16.133,12.585-22.909,0,0-.238,11.078-9.61,21.623q2.59-1.089,5.117-2.049c1.946-4.038,7.917-14.852,17.971-19.532,0,0-2.764,10.086-13.611,17.946,3.023-1.051,5.952-1.97,8.756-2.771,2.169-4.364,8.061-14.54,17.73-19.04,0,0-2.754,10.056-13.56,17.909q2.976-.763,5.706-1.356c3.866-2.268,15.5-8.09,26.514-3.563A28.152,28.152,0,0,1,716.5,422c-1.51.3-3.1.648-4.749,1.033,5.169,1.217,15.571,4.514,21.921,12.3,0,0-12.792-.24-24-11.8-2.1.52-4.294,1.107-6.571,1.775,5.093,1.176,15.694,4.456,22.128,12.346,0,0-12.783-.239-23.986-11.788-2.553.784-5.2,1.668-7.916,2.66,5.492.824,15.473,3.2,22.2,9.974,0,0-12.478.987-24.638-9.061-1.827.7-3.679,1.449-5.556,2.254,5.613,1.006,14.912,3.592,21.226,10.105,0,0-12.1.807-23.96-8.9q-3.919,1.773-7.933,3.877c5.53.455,15.663,2.162,22.838,8.482,0,0-12.291,1.8-25.036-7.3q-3.9,2.132-7.83,4.607c5.546-.014,15.792.832,23.478,6.526,0,0-12.1,2.828-25.577-5.174q-3.758,2.464-7.491,5.272c5.319-.524,16.152-.752,24.637,4.515,0,0-12.047,3.886-26.3-3.247q-4.418,3.433-8.733,7.393c5.445-1.116,15.621-2.308,24.262,1.731,0,0-11.309,5.187-26.118.013q-3.361,3.211-6.614,6.772c5.413-1.122,15.676-2.363,24.381,1.707,0,0-11.236,5.151-25.972.062C632.737,470.246,632.026,467.1,633.275,465.7Z" transform="translate(-511.161 -403.443)"/><path class="b" d="M516.406,417.4s21.14,1.292,29.929,13.381c2.047,1.013,4.054,2.115,6.02,3.285-5.336-4.721-12.687-12.362-16.129-21.1,0,0,19.469,9.984,22.191,24.986q2.773,1.92,5.42,4.013c-3.463-5.364-10.293-17.323-10.883-28.962,0,0,15.245,15.651,13.065,30.729,2.618,2.17,5.146,4.45,7.589,6.815-1.168-2.912-7.475-19.566-4.829-33.562,0,0,11.608,19.591,5.1,33.82,1.3,1.307,2.519,2.7,3.782,4.044l1.89,2.052,1.766,2.159.794.975.055.014c-2.037-5.68-6.24-19.475-4-31.355,0,0,11.238,18.966,5.4,33.129l1.27,1.559q1.641,2.253,3.22,4.549l1.594,2.284c.4.609.769,1.235,1.146,1.858-1.626-6.169-4.415-19.666-1.361-30.92,0,0,9.679,19.7,2.839,33.357l1.719,2.833c.97,1.579,1.295,3.523-.742.448l-2.169-3.238c-3.549,1.24-19.947,6.522-33.482,3.4,0,0,19.02-10.269,32.907-4.257l-.332-.5c-.517-.762-1.011-1.538-1.547-2.286l-1.677-2.193c-1.122-1.458-2.233-2.921-3.32-4.4l-2.648-3.156c-4.609,2.721-18.205,10.038-30.963,9.91,0,0,15.237-13.14,29.649-11.472l-1.356-1.609-1.9-2c-1.275-1.32-2.507-2.683-3.816-3.967-.14-.142-.285-.28-.425-.421-3,1.859-18.035,10.712-32.058,10.571,0,0,16.527-14.251,31.437-11.184q-2.794-2.756-5.765-5.321c-4.287,1.416-20.057,6.087-33.09,2.957,0,0,17.426-9.2,31.041-4.692q-2.982-2.474-6.1-4.78c-4.409,1.45-20.056,6.038-33,2.928,0,0,16.756-8.852,30.244-4.941-1.186-.848-2.4-1.653-3.634-2.434-1.263-.859-2.585-1.622-3.9-2.4l.018.028S527.515,428.453,516.406,417.4Z" transform="translate(-516.406 -403.013)"/></g></g></svg>
