<svg xmlns="http://www.w3.org/2000/svg" width="253.19" height="37.616" viewBox="0 0 253.19 37.616"><defs><style>.a{fill:#fff;}</style></defs><g transform="translate(-415 -166.276)"><path class="a" d="M10.142-41.393v-1.879h9.1v1.879Zm.161-2.631-3.49-1.342v5.959h.429c1.342,0,2.9-.7,2.9-.966v-.242h9.1v.966h.617a6.406,6.406,0,0,0,2.792-.725v-2.416a1.688,1.688,0,0,0,.966-.51l-3.141-2.335-1.5,1.611ZM21.12-48.238l-1.557,1.825H16.289v-1.825Zm-17.367,0h9.153v1.825H5.337l.215.778H23.429c.4,0,.671-.134.752-.429C23.134-46.9,21.6-48,21.255-48.238h3.973a.676.676,0,0,0,.725-.429c-1.208-.94-3.167-2.255-3.167-2.255L21.067-48.99H16.289v-1.235c.725-.107.913-.376.966-.752l-4.349-.349v2.335H3.538ZM13.846-32.616c2.335-.322,4.4-.617,6.12-.859a7.78,7.78,0,0,1,1.342,1.4L20.02-30.522H16.262v-1.127c.7-.107.886-.349.94-.725Zm8,5.127H16.262v-2.255h7.489c.376,0,.644-.134.725-.429-.671-.564-1.584-1.262-2.2-1.691,1.772-.3,1.933-3.973-4.859-3.785l-.134.349a17.889,17.889,0,0,1,1.906,1.154c-4.107.134-7.892.215-10.5.215A37.3,37.3,0,0,0,13.927-36h7.811c.376,0,.644-.134.7-.429a31.717,31.717,0,0,0-2.577-1.852l-1.369,1.5H6.786L7-36H9.82a9.321,9.321,0,0,1-3.3,1.745,3.443,3.443,0,0,1-.671.161l.886,2.845a1.6,1.6,0,0,0,.805-.591c1.906-.215,3.678-.456,5.342-.671v1.986H5.337l.215.778H12.88v2.255H2.921l.242.752H25.872c.376,0,.671-.134.725-.429-1.154-.966-3.06-2.255-3.06-2.255Zm2.523-13.18-1.611,1.611H6.142a8.014,8.014,0,0,0-.376-1.423h-.4A3.048,3.048,0,0,1,3.458-37.85,1.627,1.627,0,0,0,2.33-35.917a1.593,1.593,0,0,0,2.309.832A3.268,3.268,0,0,0,6.2-38.306H22.919c-.188.859-.456,1.933-.671,2.631l.268.161a30.469,30.469,0,0,0,3.651-2.174c.51-.027.778-.081.993-.322Zm20.213,1.691v-2.282h1.557v2.282ZM48.259-45.9c-.671-.617-1.611-1.369-1.611-1.369l-.94,1.127H42.595l.215.778H47.7c.322,0,.564-.107.644-.322l.617,1.45a1.248,1.248,0,0,0,.591-.591c.51-.188.993-.4,1.5-.591a11.456,11.456,0,0,1-2.389,2.6,2.143,2.143,0,0,1-.644.215l.456.993L46.809-42.87l-.832.832H44.9l-2.013-.886v5.8h.268a1.626,1.626,0,0,0,1.423-.591V-38.2h1.557v.778h.3c.564,0,1.45-.376,1.476-.591v-3.248a1.021,1.021,0,0,0,.591-.3l.51,1.154a1.6,1.6,0,0,0,.483-.4c1.423-.483,2.9-1.047,3.919-1.423a6.265,6.265,0,0,1,.161.94c1.423,1.315,3.248-1.53-.725-3.275l-.322.134a7.856,7.856,0,0,1,.7,1.5c-1.154.107-2.282.215-3.167.268a26.816,26.816,0,0,0,4.214-3.731.919.919,0,0,0,1.02-.3l-2.523-1.611a14.4,14.4,0,0,1-.94,1.691c-.805.027-1.611.027-2.255.054a21.64,21.64,0,0,0,3.436-3.141.861.861,0,0,0,.966-.376l-2.765-1.262A11.433,11.433,0,0,1,48.5-46.95a2.383,2.383,0,0,1-.617.188Zm4.295,4.644a7.323,7.323,0,0,1,.805,3.114c1.262,1.262,3.006-1.315-.429-3.248Zm-3.141.564a2.525,2.525,0,0,1-.993,2.013c-1.745,2.282,3.275,3.275,1.369-2.013Zm-3.678-3.516H42.595l.215.778H47.7c.376,0,.617-.134.671-.429-.671-.644-1.691-1.476-1.691-1.476Zm-2.765-7.006a4.607,4.607,0,0,1,1.1,2.523c1.718,1.342,3.651-1.906-.805-2.711Zm5.288,3.731c.376,0,.617-.134.7-.429-.752-.7-1.879-1.611-1.879-1.611l-1.02,1.262H41.736l.215.778ZM31.536-50.869a9.489,9.489,0,0,1,1.772,4c2.55,2.04,5.261-2.872-1.584-4.188Zm-1.611,6.308a7.838,7.838,0,0,1,1.718,3.839c2.443,1.96,5.073-2.765-1.45-4.026Zm5.718.188c-3.167,8.724-3.167,8.724-3.6,9.61-.3.537-.376.537-.725.537H30.193v.537a2.472,2.472,0,0,1,1.315.429c.537.4.671,2.953.188,5.744.161.993.7,1.423,1.262,1.423a2.028,2.028,0,0,0,2.013-2.147c.107-2.389-.886-3.49-.94-4.885a12.188,12.188,0,0,1,.215-2.335c.215-1.181,1.288-6.12,1.852-8.831Zm4.617-.242A10.21,10.21,0,0,1,40.823-43c-1.047.107-2.04.188-2.9.242a24.6,24.6,0,0,0,4-3.7.938.938,0,0,0,1.02-.3l-2.523-1.584a14.6,14.6,0,0,1-.94,1.745c-.752.027-1.476.027-2.067.027a21.865,21.865,0,0,0,3.3-3.167c.564.054.859-.161.966-.376l-2.792-1.262A11.783,11.783,0,0,1,36.421-47a3.383,3.383,0,0,1-.617.215l1.074,2.5a1.293,1.293,0,0,0,.591-.564c.376-.161.805-.322,1.208-.483a10.649,10.649,0,0,1-2.147,2.47,3.432,3.432,0,0,1-.644.215l.993,2.2a1.072,1.072,0,0,0,.51-.429c1.288-.483,2.631-.993,3.6-1.4a4.1,4.1,0,0,1,.081.805c1.315,1.342,3.194-1.315-.456-3.275Zm0,3.543a7.391,7.391,0,0,1,.778,3.087c1.262,1.262,2.98-1.262-.429-3.248Zm-1.557.4a8.618,8.618,0,0,1,.027,3.221c1.1,1.45,3.167-.886.349-3.3Zm14.012,7.758-1.53,1.4H40.716c.188-.564.4-1.208.591-1.8h9.315v.564h.537a5.359,5.359,0,0,0,2.47-.644v-2.174a1.6,1.6,0,0,0,.966-.483l-2.2-1.637c.564-.564.617-1.933-1.074-3.3l-.376.081a8.334,8.334,0,0,1,.027,3.06,1.953,1.953,0,0,0,.215.242l-.805.859H37.6c.483-.537.725-1.691.027-3.7h-.4a2.865,2.865,0,0,1-.94,2.255c-1.074,1.45.483,2.362,1.315,1.45l.242.778H50.621v1.879H42.139l-3.275-1.476a32.862,32.862,0,0,1-.966,3.677,5.4,5.4,0,0,0-1.047.644l2.765,1.664,1.047-1.181h10.63a3.076,3.076,0,0,1-.859,1.852,1.786,1.786,0,0,1-.859.134c-.537,0-2.443-.107-3.624-.215v.349a5.2,5.2,0,0,1,2.55.966,2.132,2.132,0,0,1,.564,1.718,7.126,7.126,0,0,0,3.248-.564c1.127-.591,1.718-1.825,2.121-3.758a1.467,1.467,0,0,0,1.047-.429Zm25.5,4.644h-5.61V-40.8h8.778c.4,0,.7-.134.778-.429C80.9-42.36,78.753-43.97,78.753-43.97l-1.906,2.389H72.605V-50.09c.725-.107.939-.376.993-.778l-4.349-.4v9.69H60.123l.242.778H69.25v12.536H58.459l.215.752H82.913c.4,0,.7-.134.778-.429-1.342-1.154-3.516-2.819-3.516-2.819ZM110.535-33.9h-.3a19.82,19.82,0,0,1-1.4,3.7,1.228,1.228,0,0,1-.94.4c-.537.054-1.637.081-3.033.081h-3.6c-1.342,0-1.691-.242-1.691-1.02V-41.179l2.282-1.02v10.308h.537c1.1,0,2.362-.564,2.362-.859V-43.46l2.631-1.127a99.7,99.7,0,0,1-.993,11.006l.322.188a42.728,42.728,0,0,0,3.624-10.442c.591-.054.859-.134,1.074-.376L108.844-46.9l-1.369,1.4-2.711,1.208v-5.879c.725-.107.94-.376.993-.752l-3.892-.376v8.268l-2.282.993v-4.268c.644-.081.913-.376.94-.7l-3.892-.429v4.08c-.805-.993-2.067-2.309-2.067-2.309l-1.288,2.147h-.591v-6.04c.752-.107.94-.4.993-.778l-4-.349v7.167H86.537l.215.778h2.926v9.073c-1.4.322-2.55.591-3.248.725l1.772,3.6a1.15,1.15,0,0,0,.7-.752,78.224,78.224,0,0,0,7.516-5.02l-.081-.3c-1.235.349-2.47.671-3.651.993v-8.321h3.409a.852.852,0,0,0,.537-.161v2.147l-2.845,1.235.537.591,2.309-1.02v9.959c0,2.47,1.1,3.006,4.295,3.006h3.7c5.879,0,7.274-.456,7.274-1.879,0-.537-.3-.886-1.262-1.235Zm15.73-.564c-2.6.913-5.234,1.8-7.328,2.443v-8.456h3.033v1.557h.51a4.174,4.174,0,0,0,2.55-.886v-7.409a1.884,1.884,0,0,0,1.02-.51l-2.926-2.2-1.423,1.5h-6.711l.242.778h6.738v6.415h-2.657L115.9-42.789v10.522c0,.591-.161.832-1.02,1.315l1.745,3.731a2.224,2.224,0,0,0,.886-.805,100.679,100.679,0,0,0,8.831-6.147Zm8.133-9.4a22.113,22.113,0,0,1-2.631,8.67,18.173,18.173,0,0,1-2.9-6.577,22.463,22.463,0,0,0,1.208-2.094Zm5.234,0c.4,0,.7-.134.778-.429-1.154-1.047-3.033-2.55-3.033-2.55l-1.664,2.2h-5.234a33.92,33.92,0,0,0,1.879-4.993c.617-.027.94-.268,1.047-.617l-4.51-1.1A36.919,36.919,0,0,1,123.9-36.884l.349.242a17.964,17.964,0,0,0,4.214-4.536,29.382,29.382,0,0,0,2.147,7.758,21.679,21.679,0,0,1-9.422,7.006l.161.3a24.1,24.1,0,0,0,10.442-5.154,13.747,13.747,0,0,0,5.557,4.8,3.469,3.469,0,0,1,2.657-2.845l.081-.3a16.729,16.729,0,0,1-6.523-3.57,21.856,21.856,0,0,0,4.322-10.684Zm10.227,7.7V-40.4h4.053v4.241ZM161.268-40.4v4.241h-4.107V-40.4Zm-8.482-4.349v-2.5h5.583v2.5Zm10.227,12.67h-5.852v-3.3h4.107V-34.2h.564a4.786,4.786,0,0,0,2.657-.832v-4.832a1.905,1.905,0,0,0,1.1-.564l-3.114-2.335L161-41.152h-3.839V-43.97h1.208v1.262h.51c1.127,0,2.5-.537,2.5-.778v-3.758h5.53c.376,0,.671-.134.752-.429-1.235-1.047-3.221-2.55-3.221-2.55L162.664-48h-1.288v-2.282c.671-.107.859-.349.913-.671l-3.919-.349V-48h-5.583v-2.282c.671-.107.859-.349.913-.671l-3.892-.349V-48h-6.093l.215.752h5.879v4.671h.483c1.181,0,2.5-.537,2.5-.805v-.591h1.127v2.819h-3.839l-3.382-1.315v8.724h.456c1.288,0,2.711-.671,2.711-.94v-.7h4.053v3.3H143.042l.215.725h10.657v5.208h.591c1.664,0,2.657-.644,2.657-.832v-4.375h10.308c.376,0,.671-.134.752-.429-1.288-1.047-3.355-2.6-3.355-2.6Zm20.669-7.865h2.765v3.033h-2.765Zm2.765-3.758V-40.7h-2.765V-43.7Zm5.53,0V-40.7h-2.6V-43.7Zm-2.6,6.791v-3.033h2.6v3.033Zm-14.119,2.819v-14.5h2.2c-.322,2.147-.966,5.342-1.45,7.087a9.843,9.843,0,0,1,1.745,5.744c0,.832-.188,1.315-.537,1.53a1.056,1.056,0,0,1-.617.134Zm16.723-2.04v1.423h.483a4.482,4.482,0,0,0,2.389-.725V-43.3a1.623,1.623,0,0,0,.966-.483l-2.765-2.094-1.342,1.423h-2.335v-2.228h6.469c.4,0,.671-.134.752-.429-1.1-1.047-2.926-2.55-2.926-2.55l-1.637,2.228h-2.657v-2.5c.752-.107.94-.376.993-.752l-3.919-.429v3.678h-6.093l.161-.322a1.577,1.577,0,0,0,1.235-.349l-2.926-2.738-1.557,1.5H175.6L172.354-50.6v24.535h.51c1.476,0,2.389-.725,2.389-.94v-6.711a1.887,1.887,0,0,1,1.074.644,6.414,6.414,0,0,1,.349,2.309c2.9-.054,3.839-1.584,3.839-4.188a8.2,8.2,0,0,0-3.839-6.63,40.032,40.032,0,0,0,3.382-5.342l.081.242h6.308v2.228h-2.6l-2.98-1.181v11.22h.4c1.181,0,2.416-.617,2.416-.886v-.832H185.1a18.862,18.862,0,0,1-7.355,8.59l.242.349a21.093,21.093,0,0,0,8.456-5.637v6.711h.564c1.1,0,2.362-.725,2.362-1.047v-8.8a14.546,14.546,0,0,0,5.127,8.724,3.622,3.622,0,0,1,2.309-2.926l.054-.268c-2.6-.859-5.718-2.523-7.248-5.691Zm21.77-11.757c.4,0,.671-.134.752-.429-1.181-1.127-3.167-2.765-3.167-2.765l-1.745,2.416h-9.932l.215.778h4.51A28.87,28.87,0,0,1,199.2-35.327l.242.268a22.082,22.082,0,0,0,4.241-4.134,7.015,7.015,0,0,1,1.476,3.436c2.6,2.013,5.234-2.845-.966-4.134a26.26,26.26,0,0,0,1.8-2.819h4.161c-1.342,6.738-4.536,12.8-10.388,16.321l.215.322c8.187-3.087,11.623-9.207,13.422-16.079.644-.081.913-.161,1.1-.456l-2.845-2.577-1.664,1.691h-3.6a24.077,24.077,0,0,0,1.718-4.4Zm4.107-.134c.617-.107.805-.349.859-.7l-3.624-.349v16.723h.483c1.047,0,2.282-.564,2.282-.832Zm2.416-2.765v20.723c0,.376-.134.537-.591.537-.644,0-3.7-.215-3.7-.215v.4a3.979,3.979,0,0,1,2.55,1.047,3.577,3.577,0,0,1,.7,2.2c3.624-.322,4.107-1.557,4.107-3.731v-19.81c.644-.107.913-.376.966-.752Zm22.6-.483a6.123,6.123,0,0,1,1.4,3.382c2.711,2.04,5.61-3.033-1.208-3.516Zm5.691,6.55-1.288,1.369h-4.268l-2.255-.966a3.4,3.4,0,0,0,.4-2.282h8.107c-.027.752-.081,1.637-.134,2.309Zm-5.664,6.2v-4.053h4.617v4.053Zm5.422,4.59v4.778H242.9v-4.778Zm-13.395-7.462v2.362H232v-2.362ZM232-35.837V-38.28h2.926v2.443Zm18.522-13.046-1.53,1.53h-7.972a12.531,12.531,0,0,0-.51-1.369h-.4a2.565,2.565,0,0,1-.913,2.308,2.614,2.614,0,0,0-.644.4c.564-1.047-.081-2.9-4.161-3.973v-.027c.7-.081.966-.3,1.047-.644l-4.51-.886a31.259,31.259,0,0,1-3.543,9.744l.242.188a13.879,13.879,0,0,0,1.584-1.288v12.4c0,.591-.134.832-.966,1.315l1.611,3.033a2.143,2.143,0,0,0,.859-.993c1.933-1.342,3.6-2.657,4.751-3.6a9.7,9.7,0,0,1,.725,2.443c2.577,2.067,5.127-3.167-1.933-5.288l-.268.134a14.938,14.938,0,0,1,1.181,2.067c-1.1.376-2.2.752-3.167,1.074v-4.751h2.926v.778h.483a3.946,3.946,0,0,0,2.282-.752v-5.986a1.788,1.788,0,0,0,.886-.456l-2.631-1.96-1.235,1.315h-2.6l-2.631-1.02c.483-.456.94-.966,1.369-1.45l.134.429H236.4c.349,0,.644-.134.7-.429-.913-.859-2.389-2.013-2.389-2.013l-1.288,1.664h-2.282a23,23,0,0,0,3.006-4.563,11.321,11.321,0,0,1,2.067,3.839,1.468,1.468,0,0,0,2.04.054,1.377,1.377,0,0,0-.134,1.1,1.459,1.459,0,0,0,1.986.752v17.609h.456c1.235,0,2.335-.644,2.335-.993v-1.235h5.422v1.8h.483a3.831,3.831,0,0,0,2.309-.805v-6.147a1.889,1.889,0,0,0,.993-.51l-2.738-2.067-1.288,1.4H242.9v-3.033h4.617v1.181H248a4.743,4.743,0,0,0,2.308-.644V-42.2a1.542,1.542,0,0,0,.966-.483l-1.745-1.288a22.936,22.936,0,0,0,2.631-2.067c.537-.054.778-.081.993-.322Z" transform="translate(413.849 217.816)"/><path class="a" d="M-221.489-13.23l1.274.02c.97.02,1.213.253,1.243.556l.01.111c.01.142.03.172.081.172s.071-.04.071-.131c0-.111.03-.809.03-1.112,0-.061,0-.121-.051-.121s-.131.03-.283.051a4.041,4.041,0,0,1-.718.051h-3.791c-.121,0-.505-.02-.8-.051a1.888,1.888,0,0,1-.445-.121c-.04,0-.081.131-.1.192-.02.081-.222.95-.222,1.051,0,.061.02.091.051.091s.071-.02.1-.1a1.775,1.775,0,0,1,.172-.313c.162-.243.4-.313,1.031-.324l1.5-.02v4.276c0,.971,0,1.769-.051,2.194-.04.293-.091.516-.293.556a1.56,1.56,0,0,1-.3.04c-.061,0-.081.03-.081.061,0,.061.051.081.162.081.3,0,.94-.03.991-.03s.687.03,1.243.03c.111,0,.162-.03.162-.081,0-.03-.02-.061-.081-.061a4.41,4.41,0,0,1-.455-.04c-.3-.04-.364-.263-.394-.556-.051-.425-.051-1.223-.051-2.194Zm9.826,3.195c0-1.334,0-1.577.02-1.85.02-.3.071-.425.3-.475a1.039,1.039,0,0,1,.222-.02.087.087,0,0,0,.081-.071c0-.051-.051-.071-.152-.071-.263,0-.829.02-.88.02s-.617-.02-1.011-.02c-.1,0-.142.02-.142.071a.076.076,0,0,0,.071.071,2.863,2.863,0,0,1,.3.02c.293.04.334.182.354.475.01.273.02.536.02,1.87v.182c0,.051-.02.051-.051.051h-3.71c-.03,0-.051,0-.051-.051v-.182c0-1.334,0-1.6.01-1.87.02-.3.071-.425.313-.475a.992.992,0,0,1,.222-.02.086.086,0,0,0,.071-.071c0-.051-.04-.071-.142-.071-.273,0-.839.02-.88.02s-.617-.02-1.021-.02c-.1,0-.142.02-.142.071a.086.086,0,0,0,.071.071,2.862,2.862,0,0,1,.3.02c.293.04.344.182.364.475.02.273.02.516.02,1.85v1.516a17.538,17.538,0,0,1-.051,1.86c-.04.253-.061.414-.233.455a1.273,1.273,0,0,1-.273.04.069.069,0,0,0-.071.071c0,.051.051.071.142.071.273,0,.839-.03.89-.03s.607.03,1.1.03c.1,0,.142-.03.142-.071a.069.069,0,0,0-.071-.071,3.617,3.617,0,0,1-.4-.04c-.263-.04-.293-.2-.324-.455-.04-.354-.04-1.011-.04-1.84v-.859c0-.04.02-.051.051-.051h3.71c.03,0,.051.01.051.051V-8.5c0,.829,0,1.476-.04,1.83-.03.253-.061.425-.243.465a1.184,1.184,0,0,1-.263.04.069.069,0,0,0-.071.071c0,.051.04.071.142.071.263,0,.839-.03.88-.03s.617.03,1.1.03c.1,0,.152-.03.152-.071a.072.072,0,0,0-.081-.071,3.469,3.469,0,0,1-.394-.04c-.273-.04-.293-.2-.323-.455-.04-.354-.051-1.031-.051-1.86Zm2.932,1.516a17.554,17.554,0,0,1-.051,1.86c-.04.253-.061.425-.233.455a2.539,2.539,0,0,1-.273.04.069.069,0,0,0-.071.071c0,.051.051.071.142.071.142,0,.344-.01.516-.02.192-.01.364-.01.384-.01.131,0,.364,0,.738.02s.88.03,1.547.03c.344,0,.435,0,.5-.222a7.122,7.122,0,0,0,.121-.829c0-.061-.01-.131-.061-.131s-.071.03-.091.131a.652.652,0,0,1-.4.6,2.962,2.962,0,0,1-.89.091c-.88,0-1.041-.111-1.061-.687-.01-.172,0-1.173,0-1.466v-.718a.053.053,0,0,1,.061-.061c.152,0,1.1.01,1.345.04.344.04.425.142.455.263a.763.763,0,0,1,.04.283c0,.051.02.081.061.081.061,0,.081-.091.081-.162s.02-.384.04-.556a4.69,4.69,0,0,1,.071-.475c0-.051-.02-.071-.051-.071s-.071.051-.131.111c-.091.091-.222.1-.435.121s-1.375.02-1.486.02c-.051,0-.051-.03-.051-.091v-2.335c0-.061.01-.091.051-.091.1,0,1.132.01,1.284.03.485.061.576.121.637.263a.943.943,0,0,1,.051.3c0,.071.02.111.071.111s.071-.051.081-.091c.02-.1.04-.485.051-.566.02-.243.071-.344.071-.4,0-.04-.01-.081-.04-.081a.57.57,0,0,0-.121.04c-.071.01-.233.04-.4.051-.2.01-2.062,0-2.123,0s-.627-.02-1.031-.02c-.1,0-.142.02-.142.071a.086.086,0,0,0,.071.071,2.863,2.863,0,0,1,.3.02c.293.04.344.182.364.475.02.273.02.516.02,1.85Zm9.088-.435c0,.971,0,1.769-.051,2.194-.04.293-.091.516-.293.556a1.56,1.56,0,0,1-.3.04c-.061,0-.081.03-.081.061,0,.061.051.081.162.081.152,0,.384-.02.586-.02s.384-.01.4-.01c.152,0,.394.01.789.03s.95.03,1.708.03c.394,0,.475,0,.546-.263a9.894,9.894,0,0,0,.131-.981c0-.071,0-.152-.061-.152s-.071.04-.091.152c-.071.414-.192.617-.455.728a2.9,2.9,0,0,1-.971.111c-.991,0-1.142-.131-1.173-.829-.01-.212,0-1.385,0-1.729v-.89a.064.064,0,0,1,.071-.071c.172,0,1.173.02,1.446.051.394.04.485.212.526.354a1.032,1.032,0,0,1,.04.334c0,.051.02.091.071.091.071,0,.071-.111.071-.192s.02-.445.04-.647c.03-.334.081-.505.081-.566s-.02-.081-.051-.081-.081.051-.152.131c-.091.1-.233.121-.475.142s-1.476.02-1.607.02c-.051,0-.061-.03-.061-.1v-2.79c0-.071.02-.1.061-.1.111,0,1.213.01,1.385.03.546.061.647.182.718.344a1.084,1.084,0,0,1,.061.364c0,.081.02.131.081.131.04,0,.061-.061.071-.111.02-.121.04-.566.051-.667.03-.283.081-.4.081-.475,0-.051-.01-.091-.04-.091-.051,0-.091.04-.142.051a2.7,2.7,0,0,1-.435.051c-.233.01-2.244.01-2.315.01l-.414-.02c-.222-.01-.5-.01-.728-.01-.111,0-.162.02-.162.081,0,.04.04.061.081.061a1.891,1.891,0,0,1,.344.03c.334.071.414.233.435.576.02.323.02.607.02,2.184Zm5.843,2.072c-.283.435-.465.6-.728.667a1.782,1.782,0,0,1-.334.051.072.072,0,0,0-.071.081c0,.03.01.061.081.061.293,0,.738-.03.809-.03s.667.03.879.03c.061,0,.111-.02.111-.061a.08.08,0,0,0-.081-.081,1.008,1.008,0,0,1-.162-.02c-.081-.02-.142-.061-.142-.142a.835.835,0,0,1,.111-.384l1.365-2.254c.536.869,1.021,1.7,1.506,2.537.081.142,0,.233-.051.243a.076.076,0,0,0-.051.071c0,.04.04.061.273.071.485.02.91.02,1.456.02.081,0,.121-.03.121-.071a.064.064,0,0,0-.071-.071,1.67,1.67,0,0,1-.3-.051.845.845,0,0,1-.505-.374c-.192-.233-1.708-2.73-1.88-2.992l1.425-2.083c.253-.374.414-.6.667-.677a1.2,1.2,0,0,1,.3-.04.089.089,0,0,0,.091-.081c0-.04-.04-.061-.142-.061-.3,0-.667.02-.748.02s-.455-.02-.789-.02c-.111,0-.152.02-.152.061a.08.08,0,0,0,.081.081,1.16,1.16,0,0,1,.243.02c.091.03.152.081.152.142a.546.546,0,0,1-.091.3c-.081.182-1.021,1.628-1.284,2-.465-.738-.8-1.355-1.173-2.032a.661.661,0,0,1-.091-.283.122.122,0,0,1,.111-.131,1.026,1.026,0,0,1,.243-.02.08.08,0,0,0,.081-.081c0-.04-.03-.061-.152-.061-.3,0-.789.02-.869.02s-.789-.02-1.041-.02c-.111,0-.152.02-.152.061a.086.086,0,0,0,.081.081,1.824,1.824,0,0,1,.374.061c.3.091.475.334.677.667l1.415,2.3Zm12.081-3.154c0-1.334,0-1.577.02-1.85.02-.3.071-.425.3-.475a1.039,1.039,0,0,1,.222-.02.087.087,0,0,0,.081-.071c0-.051-.051-.071-.152-.071-.263,0-.829.02-.88.02s-.617-.02-1.011-.02c-.1,0-.142.02-.142.071a.076.076,0,0,0,.071.071,2.862,2.862,0,0,1,.3.02c.293.04.334.182.354.475.01.273.02.536.02,1.87v.182c0,.051-.02.051-.051.051h-3.71c-.03,0-.051,0-.051-.051v-.182c0-1.334,0-1.6.01-1.87.02-.3.071-.425.313-.475a.992.992,0,0,1,.222-.02.086.086,0,0,0,.071-.071c0-.051-.04-.071-.142-.071-.273,0-.839.02-.88.02s-.617-.02-1.021-.02c-.1,0-.142.02-.142.071a.086.086,0,0,0,.071.071,2.863,2.863,0,0,1,.3.02c.293.04.344.182.364.475.02.273.02.516.02,1.85v1.516a17.548,17.548,0,0,1-.051,1.86c-.04.253-.061.414-.233.455a1.273,1.273,0,0,1-.273.04.069.069,0,0,0-.071.071c0,.051.051.071.142.071.273,0,.839-.03.89-.03s.607.03,1.1.03c.1,0,.142-.03.142-.071a.069.069,0,0,0-.071-.071,3.618,3.618,0,0,1-.4-.04c-.263-.04-.293-.2-.324-.455-.04-.354-.04-1.011-.04-1.84v-.859c0-.04.02-.051.051-.051h3.71c.03,0,.051.01.051.051V-8.5c0,.829,0,1.476-.04,1.83-.03.253-.061.425-.243.465a1.183,1.183,0,0,1-.263.04.069.069,0,0,0-.071.071c0,.051.04.071.142.071.263,0,.839-.03.88-.03s.617.03,1.1.03c.1,0,.152-.03.152-.071a.072.072,0,0,0-.081-.071,3.47,3.47,0,0,1-.394-.04c-.273-.04-.293-.2-.323-.455-.04-.354-.051-1.031-.051-1.86Zm3.74,0c0-1.334,0-1.577.01-1.85.02-.3.071-.425.313-.475a.992.992,0,0,1,.222-.02.086.086,0,0,0,.071-.071c0-.051-.04-.071-.142-.071-.273,0-.849.02-.89.02s-.607-.02-.9-.02c-.1,0-.142.02-.142.071a.076.076,0,0,0,.071.071,1.59,1.59,0,0,1,.273.03c.192.04.263.172.283.465.02.273.02.516.02,1.85v1.516c0,.829-.01,1.506-.051,1.86-.03.253-.061.414-.233.455a1.272,1.272,0,0,1-.273.04.069.069,0,0,0-.071.071c0,.051.051.071.142.071.273,0,.829-.03.88-.03s.617.03,1.112.03c.1,0,.142-.03.142-.071a.069.069,0,0,0-.071-.071,3.617,3.617,0,0,1-.4-.04c-.263-.04-.293-.2-.324-.455-.04-.354-.04-1.031-.04-1.86Zm2.922,1.516a17.543,17.543,0,0,1-.051,1.86c-.04.253-.061.445-.233.475a2.541,2.541,0,0,1-.273.04c-.051,0-.071.02-.071.051,0,.051.051.071.142.071.142,0,.354-.01.536-.02s.344-.01.364-.01c.04,0,.293.01.576.02s.607.03.768.03a1.98,1.98,0,0,0,2.234-1.911A2.044,2.044,0,0,0-172.63-9.7a2.034,2.034,0,0,0,.9-1.506c0-.455-.384-1.314-1.87-1.314-.414,0-.829.02-1.041.02-.051,0-.627-.02-1.031-.02-.1,0-.142.02-.142.071,0,.03.04.051.071.051a2.863,2.863,0,0,1,.3.02c.293.04.344.2.364.5.02.273.02.516.02,1.85Zm.768-3.6c0-.051.03-.071.111-.091a2.6,2.6,0,0,1,.455-.04,1.262,1.262,0,0,1,1.254,1.385,1.319,1.319,0,0,1-.344.92c-.182.2-.374.222-.869.222a2.751,2.751,0,0,1-.546-.04c-.04-.01-.061-.03-.061-.091Zm0,2.74c0-.04.02-.061.051-.061.142,0,.586,0,.7.02a1.881,1.881,0,0,1,.8.222,1.879,1.879,0,0,1,.849,1.567A1.177,1.177,0,0,1-173.2-6.3a2.124,2.124,0,0,1-.778-.121c-.273-.131-.273-.233-.3-.647-.01-.131-.01-1.163-.01-1.83Zm5.944-.657c0-1.334,0-1.577.01-1.85.02-.3.071-.425.313-.475a.992.992,0,0,1,.222-.02.086.086,0,0,0,.071-.071c0-.051-.04-.071-.142-.071-.273,0-.849.02-.89.02s-.607-.02-.9-.02c-.1,0-.142.02-.142.071a.076.076,0,0,0,.071.071,1.59,1.59,0,0,1,.273.03c.192.04.263.172.283.465.02.273.02.516.02,1.85v1.516c0,.829-.01,1.506-.051,1.86-.03.253-.061.414-.232.455a1.273,1.273,0,0,1-.273.04.069.069,0,0,0-.071.071c0,.051.051.071.142.071.273,0,.829-.03.88-.03s.617.03,1.112.03c.1,0,.142-.03.142-.071a.069.069,0,0,0-.071-.071,3.617,3.617,0,0,1-.4-.04c-.263-.04-.293-.2-.324-.455-.04-.354-.04-1.031-.04-1.86Zm5.065-2.093,1.112.02c.849.02,1.041.212,1.072.475l.01.091c.01.121.03.152.071.152s.081-.04.081-.111c0-.1.03-.718.03-.981,0-.051,0-.1-.04-.1s-.121.02-.253.04a4.422,4.422,0,0,1-.637.04h-3.356c-.1,0-.445-.01-.7-.04a3.093,3.093,0,0,1-.394-.1c-.03,0-.071.111-.091.162-.01.071-.192.839-.192.93a.067.067,0,0,0,.061.071c.04,0,.071-.01.091-.081a1.394,1.394,0,0,1,.142-.273c.131-.2.344-.263.9-.273l1.284-.02v3.609c0,.829,0,1.506-.04,1.86-.03.253-.081.425-.263.465a1.183,1.183,0,0,1-.263.04c-.051,0-.071.03-.071.061,0,.051.04.071.142.071.263,0,.88-.03.92-.03s.617.03,1.1.03c.1,0,.142-.03.142-.071a.063.063,0,0,0-.071-.071,3.4,3.4,0,0,1-.4-.04c-.273-.04-.313-.2-.344-.455-.04-.354-.04-1.031-.04-1.86Zm5.035,2.093c0-1.334,0-1.577.01-1.85.02-.3.071-.425.313-.475a.992.992,0,0,1,.222-.02.086.086,0,0,0,.071-.071c0-.051-.04-.071-.142-.071-.273,0-.849.02-.89.02s-.607-.02-.9-.02c-.1,0-.142.02-.142.071a.076.076,0,0,0,.071.071,1.59,1.59,0,0,1,.273.03c.192.04.263.172.283.465.02.273.02.516.02,1.85v1.516c0,.829-.01,1.506-.051,1.86-.03.253-.061.414-.233.455a1.273,1.273,0,0,1-.273.04.069.069,0,0,0-.071.071c0,.051.051.071.142.071.273,0,.829-.03.88-.03s.617.03,1.112.03c.1,0,.142-.03.142-.071a.069.069,0,0,0-.071-.071,3.617,3.617,0,0,1-.4-.04c-.263-.04-.293-.2-.324-.455-.04-.354-.04-1.031-.04-1.86Zm1.971.748A3.3,3.3,0,0,0-152.8-5.911a3.443,3.443,0,0,0,3.569-3.508,3.214,3.214,0,0,0-3.518-3.225A3.4,3.4,0,0,0-156.273-9.287Zm.92-.233c0-1.87,1.072-2.8,2.558-2.8,1.405,0,2.659,1.082,2.659,3.144,0,2.487-1.607,2.912-2.406,2.912C-154.15-6.264-155.353-7.518-155.353-9.52Zm8.259-1.729c.273.3,1.274,1.355,2.3,2.436.94.981,2.224,2.244,2.315,2.325.5.455.586.526.677.526.061,0,.071-.051.071-.617l.02-5.034c0-.516.02-.687.313-.748a1.007,1.007,0,0,1,.212-.02.1.1,0,0,0,.1-.081c0-.051-.071-.061-.162-.061-.364,0-.657.02-.758.02s-.526-.02-.93-.02c-.1,0-.172.01-.172.061,0,.03.01.081.071.081a2.848,2.848,0,0,1,.435.04c.273.051.324.243.334.8l.091,4.307c-.273-.283-1.223-1.3-2.1-2.214-1.375-1.415-2.669-2.79-2.81-2.932-.091-.091-.243-.263-.344-.263-.071,0-.121.091-.121.435v4.923c0,.778-.03,1.011-.253,1.072a1.4,1.4,0,0,1-.364.051.069.069,0,0,0-.071.071c0,.061.051.071.142.071.4,0,.778-.03.859-.03s.435.03.94.03c.1,0,.162-.02.162-.071a.069.069,0,0,0-.071-.071,2.114,2.114,0,0,1-.445-.051c-.243-.061-.324-.273-.344-.981Zm17.772.516c0-1.577,0-1.86.02-2.184.02-.354.1-.526.374-.576a1.5,1.5,0,0,1,.253-.03c.04,0,.081-.02.081-.061,0-.061-.051-.081-.162-.081-.3,0-.94.03-.991.03s-.687-.03-1.142-.03c-.111,0-.162.02-.162.081,0,.04.04.061.081.061a1.891,1.891,0,0,1,.344.03c.334.071.414.233.435.576.02.323.02.607.02,2.184v.212a.053.053,0,0,1-.061.061h-4.286a.053.053,0,0,1-.061-.061v-.212c0-1.577,0-1.86.02-2.184.02-.354.1-.526.374-.576a1.5,1.5,0,0,1,.253-.03c.04,0,.081-.02.081-.061,0-.061-.051-.081-.162-.081-.3,0-.94.03-.991.03s-.687-.03-1.142-.03c-.111,0-.162.02-.162.081,0,.04.04.061.081.061a1.891,1.891,0,0,1,.344.03c.334.071.414.233.435.576.02.323.02.607.02,2.184v1.779c0,.971,0,1.769-.051,2.194-.04.293-.091.516-.293.556a1.561,1.561,0,0,1-.3.04c-.061,0-.081.03-.081.061,0,.061.051.081.162.081.3,0,.94-.03.991-.03s.687.03,1.243.03c.111,0,.162-.03.162-.081,0-.03-.02-.061-.081-.061a4.409,4.409,0,0,1-.455-.04c-.3-.04-.364-.263-.394-.556-.051-.425-.051-1.223-.051-2.194v-1.061a.053.053,0,0,1,.061-.061h4.286a.058.058,0,0,1,.061.061v1.061c0,.971,0,1.769-.051,2.194-.04.293-.091.516-.293.556a1.561,1.561,0,0,1-.3.04c-.061,0-.081.03-.081.061,0,.061.051.081.162.081.3,0,.94-.03.991-.03s.687.03,1.243.03c.111,0,.162-.03.162-.081,0-.03-.02-.061-.081-.061a4.41,4.41,0,0,1-.455-.04c-.3-.04-.364-.263-.394-.556-.051-.425-.051-1.223-.051-2.194Zm2.628,3.761c-.172.435-.344.738-.748.789a2.489,2.489,0,0,1-.263.02.078.078,0,0,0-.081.071c0,.051.061.071.172.071.364,0,.809-.03.9-.03s.586.03.8.03c.081,0,.131-.02.131-.071s-.02-.071-.091-.071h-.081c-.152,0-.3-.061-.3-.233a1.777,1.777,0,0,1,.131-.576l.505-1.375a.094.094,0,0,1,.091-.071h2.052c.051,0,.061.01.081.051l.8,1.971a.161.161,0,0,1-.081.233c-.04.02-.061.02-.061.061s.142.051.313.061c.617.02,1.274.02,1.405.02.1,0,.2-.02.2-.071s-.061-.071-.111-.071a1.236,1.236,0,0,1-.354-.051c-.192-.061-.435-.172-.758-.94-.546-1.3-1.971-4.853-2.133-5.216-.091-.192-.121-.313-.212-.313-.061,0-.1.051-.212.334Zm1.284-1.8q-.046,0-.03-.061l.829-2.355q.076-.2.152,0l.88,2.355c.01.04.01.061-.03.061Zm6.571-1.264c0-1.334,0-1.577.01-1.85.02-.3.071-.435.334-.485.1-.01.233-.02.293-.02.03,0,.071-.03.071-.061,0-.051-.051-.071-.142-.071-.273,0-.94.02-.981.02s-.607-.02-1.011-.02c-.1,0-.142.02-.142.071a.086.086,0,0,0,.071.071,2.863,2.863,0,0,1,.3.02c.293.04.344.182.364.475.02.273.02.516.02,1.85v1.516a17.543,17.543,0,0,1-.051,1.86c-.04.253-.061.414-.233.455a1.273,1.273,0,0,1-.273.04.069.069,0,0,0-.071.071c0,.051.051.071.142.071.142,0,.334-.01.516-.02s.324-.01.364-.01c.263,0,.566.01.971.02s.91.03,1.547.03c.475,0,.505-.03.566-.233a5.425,5.425,0,0,0,.131-.859c0-.091-.02-.131-.061-.131s-.081.051-.091.111a1.052,1.052,0,0,1-.212.485c-.212.253-.607.263-1.072.263-.7,0-1.041-.061-1.183-.2-.162-.152-.182-.667-.182-1.931Zm5.409,0c0-1.334,0-1.577.01-1.85.02-.3.071-.435.334-.485.1-.01.233-.02.293-.02.03,0,.071-.03.071-.061,0-.051-.051-.071-.142-.071-.273,0-.94.02-.981.02s-.607-.02-1.011-.02c-.1,0-.142.02-.142.071a.086.086,0,0,0,.071.071,2.863,2.863,0,0,1,.3.02c.293.04.344.182.364.475.02.273.02.516.02,1.85v1.516a17.548,17.548,0,0,1-.051,1.86c-.04.253-.061.414-.233.455a1.272,1.272,0,0,1-.273.04.069.069,0,0,0-.071.071c0,.051.051.071.142.071.142,0,.334-.01.516-.02s.324-.01.364-.01c.263,0,.566.01.971.02s.91.03,1.547.03c.475,0,.505-.03.566-.233a5.425,5.425,0,0,0,.131-.859c0-.091-.02-.131-.061-.131s-.081.051-.091.111a1.052,1.052,0,0,1-.212.485c-.212.253-.607.263-1.072.263-.7,0-1.041-.061-1.183-.2-.162-.152-.182-.667-.182-1.931Zm6.874.748a3.3,3.3,0,0,0,3.478,3.377,3.443,3.443,0,0,0,3.569-3.508,3.214,3.214,0,0,0-3.518-3.225A3.4,3.4,0,0,0-106.555-9.287Zm.92-.233c0-1.87,1.072-2.8,2.558-2.8,1.405,0,2.659,1.082,2.659,3.144,0,2.487-1.607,2.912-2.406,2.912C-104.432-6.264-105.635-7.518-105.635-9.52Zm7.986,1a17.543,17.543,0,0,1-.051,1.86c-.04.253-.061.425-.233.455a2.54,2.54,0,0,1-.273.04.069.069,0,0,0-.071.071c0,.051.051.071.142.071.273,0,.829-.03.88-.03s.617.03,1.112.03c.1,0,.142-.03.142-.071a.069.069,0,0,0-.071-.071,3.618,3.618,0,0,1-.4-.04c-.243-.04-.293-.2-.323-.455-.04-.334-.04-1.011-.04-1.86v-.687c0-.061.01-.081.061-.081.152,0,1.2-.01,1.425.02.273.04.414.152.455.273a1.223,1.223,0,0,1,.061.313c0,.04.01.081.061.081s.081-.091.081-.172c0-.061.01-.4.03-.576a3.533,3.533,0,0,1,.081-.475c0-.04-.01-.071-.051-.071s-.071.04-.111.091c-.081.1-.2.131-.414.152-.121.01-.253.01-.4.01l-1.213.01c-.061,0-.061-.03-.061-.081v-2.345c0-.071.02-.091.071-.091l1.456.02a.669.669,0,0,1,.607.253.94.94,0,0,1,.081.324c0,.061.03.1.071.1s.071-.051.081-.091c.02-.1.03-.485.04-.566.03-.243.071-.344.071-.4,0-.04-.02-.081-.061-.081s-.071.04-.121.051a1.843,1.843,0,0,1-.4.04c-.2.01-2.133,0-2.3,0-.051,0-.607-.02-1.011-.02-.1,0-.142.02-.142.071a.086.086,0,0,0,.071.071,2.863,2.863,0,0,1,.3.02c.293.04.344.182.364.475.02.273.02.516.02,1.85Zm11.08-4.711,1.274.02c.97.02,1.213.253,1.243.556l.01.111c.01.142.03.172.081.172s.071-.04.071-.131c0-.111.03-.809.03-1.112,0-.061,0-.121-.051-.121s-.131.03-.283.051a4.041,4.041,0,0,1-.718.051H-88.7c-.121,0-.505-.02-.8-.051a1.887,1.887,0,0,1-.445-.121c-.04,0-.081.131-.1.192-.02.081-.222.95-.222,1.051,0,.061.02.091.051.091s.071-.02.1-.1a1.778,1.778,0,0,1,.172-.313c.162-.243.4-.313,1.031-.324l1.5-.02v4.276c0,.971,0,1.769-.051,2.194-.04.293-.091.516-.293.556a1.561,1.561,0,0,1-.3.04c-.061,0-.081.03-.081.061,0,.061.051.081.162.081.3,0,.94-.03.991-.03s.687.03,1.243.03c.111,0,.162-.03.162-.081,0-.03-.02-.061-.081-.061a4.409,4.409,0,0,1-.455-.04c-.3-.04-.364-.263-.394-.556-.051-.425-.051-1.223-.051-2.194Zm3.154,6.258c-.172.435-.344.738-.748.789a2.489,2.489,0,0,1-.263.02.078.078,0,0,0-.081.071c0,.051.061.071.172.071.364,0,.809-.03.9-.03s.586.03.8.03c.081,0,.131-.02.131-.071s-.02-.071-.091-.071h-.081c-.152,0-.3-.061-.3-.233a1.777,1.777,0,0,1,.131-.576l.505-1.375a.094.094,0,0,1,.091-.071H-80.2c.051,0,.061.01.081.051l.8,1.971a.161.161,0,0,1-.081.233c-.04.02-.061.02-.061.061s.142.051.313.061c.617.02,1.274.02,1.405.02.1,0,.2-.02.2-.071s-.061-.071-.111-.071a1.236,1.236,0,0,1-.354-.051c-.192-.061-.435-.172-.758-.94-.546-1.3-1.971-4.853-2.133-5.216-.091-.192-.121-.313-.212-.313-.061,0-.1.051-.212.334Zm1.284-1.8q-.045,0-.03-.061l.829-2.355q.076-.2.152,0l.88,2.355c.01.04.01.061-.03.061Zm6.571-1.264c0-1.334,0-1.577.01-1.85.02-.3.071-.425.313-.475a.992.992,0,0,1,.222-.02.086.086,0,0,0,.071-.071c0-.051-.04-.071-.142-.071-.273,0-.849.02-.89.02s-.607-.02-.9-.02c-.1,0-.142.02-.142.071a.076.076,0,0,0,.071.071,1.59,1.59,0,0,1,.273.03c.192.04.263.172.283.465.02.273.02.516.02,1.85v1.516c0,.829-.01,1.506-.051,1.86-.03.253-.061.414-.233.455a1.273,1.273,0,0,1-.273.04A.069.069,0,0,0-77-6.093c0,.051.051.071.142.071.273,0,.829-.03.88-.03s.617.03,1.112.03c.1,0,.142-.03.142-.071a.069.069,0,0,0-.071-.071,3.617,3.617,0,0,1-.4-.04c-.263-.04-.293-.2-.324-.455-.04-.354-.04-1.031-.04-1.86Zm6.915-2.052c-.111-.293-.182-.4-.243-.4s-.111.051-.243.394l-1.86,4.8h-.02c-.111-.354-1.021-3.508-1.163-4.054a5.006,5.006,0,0,1-.172-.8.174.174,0,0,1,.121-.182.748.748,0,0,1,.313-.051.089.089,0,0,0,.091-.081c0-.04-.04-.061-.162-.061-.445,0-.849.02-.93.02s-.586-.02-1.051-.02c-.081,0-.142.02-.142.061a.08.08,0,0,0,.081.081,1.68,1.68,0,0,1,.4.051c.233.081.324.192.465.647l1.577,5.1c.182.586.253.677.344.677s.162-.091.313-.455c.324-.8,1.527-3.943,1.83-4.691l1.739,4.7c.121.334.2.445.293.445s.152-.1.384-.738c.354-.96,1.233-3.69,1.628-4.782.172-.475.313-.819.576-.91a1.461,1.461,0,0,1,.3-.04.082.082,0,0,0,.081-.091c0-.03-.04-.051-.121-.051-.273,0-.657.02-.718.02-.081,0-.455-.02-.91-.02-.111,0-.152.02-.152.061a.086.086,0,0,0,.081.081c.4,0,.475.1.475.253a1.8,1.8,0,0,1-.1.536c-.313,1.1-1.112,3.589-1.334,4.3h-.04Zm4.751,5.115c-.172.435-.344.738-.748.789a2.489,2.489,0,0,1-.263.02.078.078,0,0,0-.081.071c0,.051.061.071.172.071.364,0,.809-.03.9-.03s.586.03.8.03c.081,0,.131-.02.131-.071s-.02-.071-.091-.071h-.081c-.152,0-.3-.061-.3-.233a1.777,1.777,0,0,1,.131-.576l.505-1.375a.094.094,0,0,1,.091-.071h2.052c.051,0,.061.01.081.051l.8,1.971a.161.161,0,0,1-.081.233c-.04.02-.061.02-.061.061s.142.051.313.061c.617.02,1.274.02,1.405.02.1,0,.2-.02.2-.071s-.061-.071-.111-.071a1.236,1.236,0,0,1-.354-.051c-.192-.061-.435-.172-.758-.94-.546-1.3-1.971-4.853-2.133-5.216-.091-.192-.121-.313-.212-.313-.061,0-.1.051-.212.334Zm1.284-1.8q-.045,0-.03-.061l.829-2.355q.076-.2.152,0l.88,2.355c.01.04.01.061-.03.061Zm6.035-2.477c.273.3,1.274,1.355,2.3,2.436.94.981,2.224,2.244,2.315,2.325.5.455.586.526.677.526.061,0,.071-.051.071-.617l.02-5.034c0-.516.02-.687.313-.748a1.007,1.007,0,0,1,.212-.02.1.1,0,0,0,.1-.081c0-.051-.071-.061-.162-.061-.364,0-.657.02-.758.02s-.526-.02-.93-.02c-.1,0-.172.01-.172.061,0,.03.01.081.071.081a2.848,2.848,0,0,1,.435.04c.273.051.324.243.334.8l.091,4.307c-.273-.283-1.223-1.3-2.1-2.214-1.375-1.415-2.669-2.79-2.81-2.932-.091-.091-.243-.263-.344-.263-.071,0-.121.091-.121.435v4.923c0,.778-.03,1.011-.253,1.072a1.4,1.4,0,0,1-.364.051.069.069,0,0,0-.071.071c0,.061.051.071.142.071.4,0,.778-.03.859-.03s.435.03.94.03c.1,0,.162-.02.162-.071a.069.069,0,0,0-.071-.071,2.114,2.114,0,0,1-.445-.051c-.243-.061-.324-.273-.344-.981Zm12.515.516c0-1.577,0-1.86.02-2.184.02-.354.1-.526.394-.576a2.374,2.374,0,0,1,.334-.03c.04,0,.081-.02.081-.061,0-.061-.051-.081-.162-.081-.3,0-1.041.03-1.092.03s-.687-.03-1.142-.03c-.111,0-.162.02-.162.081,0,.04.04.061.081.061a1.891,1.891,0,0,1,.344.03c.334.071.414.233.435.576.02.323.02.607.02,2.184v1.779c0,.971,0,1.769-.051,2.194-.04.293-.091.516-.293.556a1.561,1.561,0,0,1-.3.04c-.061,0-.081.03-.081.061,0,.061.051.081.162.081.152,0,.374-.01.576-.02s.374-.01.414-.01c.293,0,.607.01,1.031.03s.95.03,1.678.03c.536,0,.566-.04.637-.273a6.453,6.453,0,0,0,.152-1.011c0-.111-.01-.152-.061-.152s-.081.051-.091.131a1.409,1.409,0,0,1-.263.607c-.243.293-.687.3-1.223.3-.789,0-1.051-.071-1.213-.233-.182-.182-.222-.829-.222-2.315Zm4.276,3.761c-.172.435-.344.738-.748.789a2.489,2.489,0,0,1-.263.02.078.078,0,0,0-.081.071c0,.051.061.071.172.071.364,0,.809-.03.9-.03s.586.03.8.03c.081,0,.131-.02.131-.071s-.02-.071-.091-.071h-.081c-.152,0-.3-.061-.3-.233a1.777,1.777,0,0,1,.131-.576l.505-1.375a.094.094,0,0,1,.091-.071h2.052c.051,0,.061.01.081.051l.8,1.971a.161.161,0,0,1-.081.233c-.04.02-.061.02-.061.061s.142.051.313.061c.617.02,1.274.02,1.405.02.1,0,.2-.02.2-.071s-.061-.071-.111-.071a1.236,1.236,0,0,1-.354-.051c-.192-.061-.435-.172-.758-.94-.546-1.3-1.971-4.853-2.133-5.216-.091-.192-.121-.313-.212-.313-.061,0-.1.051-.212.334Zm1.284-1.8q-.046,0-.03-.061l.829-2.355q.076-.2.152,0l.88,2.355c.01.04.01.061-.03.061Zm6.035-2.477c.273.3,1.274,1.355,2.3,2.436.94.981,2.224,2.244,2.315,2.325.5.455.586.526.677.526.061,0,.071-.051.071-.617l.02-5.034c0-.516.02-.687.313-.748a1.007,1.007,0,0,1,.212-.02.1.1,0,0,0,.1-.081c0-.051-.071-.061-.162-.061-.364,0-.657.02-.758.02s-.526-.02-.93-.02c-.1,0-.172.01-.172.061,0,.03.01.081.071.081a2.848,2.848,0,0,1,.435.04c.273.051.323.243.334.8l.091,4.307c-.273-.283-1.223-1.3-2.1-2.214-1.375-1.415-2.669-2.79-2.81-2.932-.091-.091-.243-.263-.344-.263-.071,0-.121.091-.121.435v4.923c0,.778-.03,1.011-.253,1.072a1.4,1.4,0,0,1-.364.051.069.069,0,0,0-.071.071c0,.061.051.071.142.071.4,0,.778-.03.859-.03s.435.03.94.03c.1,0,.162-.02.162-.071a.069.069,0,0,0-.071-.071,2.114,2.114,0,0,1-.445-.051c-.243-.061-.324-.273-.344-.981Zm7.946,2.73a17.546,17.546,0,0,1-.051,1.86c-.04.253-.061.414-.233.455a1.273,1.273,0,0,1-.273.04.069.069,0,0,0-.071.071c0,.051.051.071.142.071.142,0,.354-.01.536-.02s.344-.01.364-.01c.04,0,.344.02.728.051s.859.051,1.243.051a3.572,3.572,0,0,0,2.7-.991,3.442,3.442,0,0,0,.96-2.416,3.019,3.019,0,0,0-.869-2.184c-1.051-1.061-2.679-.981-3.569-.981-.526,0-1.092.02-1.193.02-.051,0-.627-.02-1.031-.02-.1,0-.142.02-.142.071a.086.086,0,0,0,.071.071,2.863,2.863,0,0,1,.3.02c.293.04.344.182.364.475.02.273.02.516.02,1.85Zm.809-3.457a.151.151,0,0,1,.111-.172,2.374,2.374,0,0,1,.536-.061,3.674,3.674,0,0,1,2.881.96A2.978,2.978,0,0,1-19.341-9.1a2.893,2.893,0,0,1-.7,2.042,2.983,2.983,0,0,1-2.083.778c-1.051,0-1.365-.182-1.476-.344a1.625,1.625,0,0,1-.1-.617c-.01-.162-.01-.96-.01-1.87Zm10.888,3.023c0,.971,0,1.769-.051,2.194-.04.293-.091.516-.293.556a1.561,1.561,0,0,1-.3.04c-.061,0-.081.03-.081.061,0,.061.051.081.162.081.3,0,.94-.03.95-.03.051,0,.687.03,1.243.03.111,0,.162-.03.162-.081,0-.03-.02-.061-.081-.061a4.409,4.409,0,0,1-.455-.04c-.3-.04-.364-.263-.394-.556-.051-.425-.051-1.223-.051-2.194V-9.2c0-.051.02-.081.071-.081l1.243.02a.163.163,0,0,1,.131.061c.2.263.677.94,1.1,1.5A5.275,5.275,0,0,0-8.1-6.214a2.057,2.057,0,0,0,1.082.192H-6.3c.182,0,.243-.02.243-.081,0-.03-.04-.061-.091-.061a2.424,2.424,0,0,1-.394-.03,2.091,2.091,0,0,1-1.233-.728c-.586-.627-1.274-1.527-2.1-2.588a3.12,3.12,0,0,0,1.223-2.335,1.769,1.769,0,0,0-.7-1.375,3.113,3.113,0,0,0-1.85-.445c-.313,0-1.082.03-1.193.03-.051,0-.687-.03-1.142-.03-.111,0-.162.02-.162.081,0,.04.04.061.081.061a1.891,1.891,0,0,1,.344.03c.334.071.414.233.435.576.02.323.02.607.02,2.184Zm.809-4.206a.122.122,0,0,1,.081-.121,3.052,3.052,0,0,1,.677-.061c1.082,0,1.749.758,1.749,2.022a1.845,1.845,0,0,1-.617,1.557,1.309,1.309,0,0,1-.758.192,2.786,2.786,0,0,1-1.061-.162.132.132,0,0,1-.071-.121Zm6.581,4.64a17.547,17.547,0,0,1-.051,1.86c-.04.253-.061.425-.233.455a2.54,2.54,0,0,1-.273.04.069.069,0,0,0-.071.071c0,.051.051.071.142.071.142,0,.344-.01.516-.02.192-.01.364-.01.384-.01.131,0,.364,0,.738.02S-3.4-6-2.732-6c.344,0,.435,0,.5-.222a7.124,7.124,0,0,0,.121-.829c0-.061-.01-.131-.061-.131s-.071.03-.091.131a.652.652,0,0,1-.4.6,2.962,2.962,0,0,1-.89.091c-.88,0-1.041-.111-1.061-.687-.01-.172,0-1.173,0-1.466v-.718A.053.053,0,0,1-4.561-9.3c.152,0,1.1.01,1.345.04.344.04.425.142.455.263a.763.763,0,0,1,.04.283c0,.051.02.081.061.081.061,0,.081-.091.081-.162s.02-.384.04-.556a4.686,4.686,0,0,1,.071-.475c0-.051-.02-.071-.051-.071s-.071.051-.131.111c-.091.091-.222.1-.435.121s-1.375.02-1.486.02c-.051,0-.051-.03-.051-.091v-2.335c0-.061.01-.091.051-.091.1,0,1.132.01,1.284.03.485.061.576.121.637.263a.942.942,0,0,1,.051.3c0,.071.02.111.071.111s.071-.051.081-.091c.02-.1.04-.485.051-.566.02-.243.071-.344.071-.4,0-.04-.01-.081-.04-.081a.57.57,0,0,0-.121.04c-.071.01-.233.04-.4.051-.2.01-2.062,0-2.123,0s-.627-.02-1.031-.02c-.1,0-.142.02-.142.071a.086.086,0,0,0,.071.071,2.863,2.863,0,0,1,.3.02c.293.04.344.182.364.475.02.273.02.516.02,1.85Zm5.57,0a17.547,17.547,0,0,1-.051,1.86c-.04.253-.061.425-.233.455a2.54,2.54,0,0,1-.273.04.069.069,0,0,0-.071.071c0,.051.051.071.142.071.273,0,.829-.03.88-.03s.617.03,1.112.03c.1,0,.142-.03.142-.071a.069.069,0,0,0-.071-.071,3.617,3.617,0,0,1-.4-.04c-.243-.04-.293-.2-.324-.455-.04-.334-.04-1.011-.04-1.86v-.687c0-.061.01-.081.061-.081.152,0,1.2-.01,1.425.02.273.04.414.152.455.273a1.223,1.223,0,0,1,.061.313c0,.04.01.081.061.081s.081-.091.081-.172c0-.061.01-.4.03-.576A3.53,3.53,0,0,1,3.2-9.823c0-.04-.01-.071-.051-.071s-.071.04-.111.091c-.081.1-.2.131-.414.152-.121.01-.253.01-.4.01l-1.213.01c-.061,0-.061-.03-.061-.081v-2.345c0-.071.02-.091.071-.091l1.456.02a.669.669,0,0,1,.607.253.94.94,0,0,1,.081.324c0,.061.03.1.071.1s.071-.051.081-.091c.02-.1.03-.485.04-.566.03-.243.071-.344.071-.4,0-.04-.02-.081-.061-.081s-.071.04-.121.051a1.843,1.843,0,0,1-.4.04c-.2.01-2.133,0-2.3,0-.051,0-.607-.02-1.011-.02-.1,0-.142.02-.142.071a.086.086,0,0,0,.071.071,2.863,2.863,0,0,1,.3.02c.293.04.344.182.364.475.02.273.02.516.02,1.85Zm4.4-.768A3.3,3.3,0,0,0,8.015-5.911a3.443,3.443,0,0,0,3.569-3.508,3.214,3.214,0,0,0-3.518-3.225A3.4,3.4,0,0,0,4.537-9.287Zm.92-.233c0-1.87,1.072-2.8,2.558-2.8,1.405,0,2.659,1.082,2.659,3.144,0,2.487-1.607,2.912-2.406,2.912C6.66-6.264,5.457-7.518,5.457-9.52Zm7.986,1a17.544,17.544,0,0,1-.051,1.86c-.04.253-.061.414-.233.455a1.273,1.273,0,0,1-.273.04.069.069,0,0,0-.071.071c0,.051.051.071.142.071.273,0,.869-.03.88-.03.04,0,.607.03,1.092.03.1,0,.142-.03.142-.071A.063.063,0,0,0,15-6.163a3.257,3.257,0,0,1-.394-.04c-.273-.04-.323-.2-.354-.455-.04-.354-.04-1.021-.04-1.85v-.2c0-.051.02-.071.061-.071l1.132.02a.136.136,0,0,1,.121.051c.192.233.586.789.96,1.254A4.543,4.543,0,0,0,17.7-6.194a1.793,1.793,0,0,0,.95.172h.556c.162,0,.212-.02.212-.071a.078.078,0,0,0-.081-.071,1.635,1.635,0,0,1-.313-.03,1.629,1.629,0,0,1-.991-.6c-.516-.536-1.132-1.314-1.86-2.224a2.511,2.511,0,0,0,1.092-1.961,1.507,1.507,0,0,0-.617-1.173,2.913,2.913,0,0,0-1.658-.374c-.273,0-1.021.02-1.112.02-.051,0-.647-.02-1.051-.02-.1,0-.142.02-.142.071a.086.086,0,0,0,.071.071,2.863,2.863,0,0,1,.3.02c.293.04.344.182.364.475.02.273.02.516.02,1.85Zm.768-3.548a.11.11,0,0,1,.071-.1,3.878,3.878,0,0,1,.637-.051,1.485,1.485,0,0,1,1.537,1.688,1.534,1.534,0,0,1-.536,1.314,1.155,1.155,0,0,1-.667.152,3.014,3.014,0,0,1-.981-.131.127.127,0,0,1-.061-.111Zm12.081-.344c-.02-.162-.071-.233-.131-.233s-.1.061-.142.142L23.431-7.174l-2.689-5.338a.2.2,0,0,0-.182-.131c-.051,0-.091.061-.1.152l-.647,5.611c-.04.323-.051.637-.344.687a1.723,1.723,0,0,1-.263.03c-.051,0-.091.03-.091.061,0,.061.061.081.152.081.243,0,.667-.03.748-.03s.5.03.829.03c.1,0,.162-.02.162-.081,0-.03-.04-.061-.071-.061a1.444,1.444,0,0,1-.344-.051.24.24,0,0,1-.212-.243c0-.142,0-.3.01-.435l.344-3.882h.04c.152.354.869,1.8,1.132,2.345.222.465.809,1.567,1.041,1.992.172.313.222.394.3.394s.131-.081.313-.455l2.143-4.387h.02l.425,4.347c.02.162.01.293-.04.3a.074.074,0,0,0-.061.071c0,.04.04.071.253.091.324.03,1.314.051,1.516.051.1,0,.182-.03.182-.081s-.03-.061-.071-.061a1.875,1.875,0,0,1-.576-.081c-.364-.121-.425-.586-.455-.89Z" transform="translate(640.189 209.802)"/></g></svg>
